<?xml version="1.0" standalone="no"?>
<!DOCTYPE svg PUBLIC "-//W3C//DTD SVG 1.1//EN" "http://www.w3.org/Graphics/SVG/1.1/DTD/svg11.dtd">
<svg xmlns="http://www.w3.org/2000/svg">
<defs >
<font id="WorkSans" horiz-adv-x="577" ><font-face
    font-family="Work Sans Medium"
    units-per-em="1000"
    panose-1="0 0 0 0 0 0 0 0 0 0"
    ascent="930"
    descent="-243"
    alphabetic="0" />
<glyph unicode=" " horiz-adv-x="321" />
<glyph unicode="!" horiz-adv-x="278" d="M86 210L113 396L174 660H287L226 396L168 210H86ZM91 -9Q61 -9 42 7T23 51Q23 88 45 110T101 132Q131 132 149 116T168 71Q168 34 147 13T91 -9Z" />
<glyph unicode="&quot;" horiz-adv-x="414" d="M460 686L373 430H293L352 686H460ZM283 686L196 430H116L175 686H283Z" />
<glyph unicode="#" horiz-adv-x="654" d="M307 0L527 660H613L393 0H307ZM28 177V250H595V177H28ZM70 0L290 660H375L155 0H70ZM96 410V483H662V410H96Z" />
<glyph unicode="$" horiz-adv-x="624" d="M323 0Q252 0 193 20T91 81T22 181L104 233Q123 181 157 148T236 100T330 84Q373 84 403 98T448 137T463 187Q463 218 442 237T378 268L270 299Q223 312 189 335T135 392T116 464Q116 522 146 566T231 635T359 660Q420
660 470 644T559 593T619 508L538 458Q522 506 494 532T429 567T353 577Q287 577 251 547T215 479Q215 460 225 443T255 412T300 390L422 355Q490 335 526 297T562 203Q562 140 530 95T443 25T323 0ZM197 -96L395 756H475L277 -96H197Z" />
<glyph unicode="%" horiz-adv-x="922" d="M127 0L729 660H832L230 0H127ZM242 302Q195 302 161 321T109 376T90 456Q90 514 114 562T180 640T278 670Q326 670 359 651T411 596T430 516Q430 460 406 411T340 332T242 302ZM247 381Q278 381 299 401T331 451T343
514Q343 549 325 570T273 592Q242 592 221 572T189 522T177 459Q177 424 195 403T247 381ZM681 -10Q634 -10 600 9T548 64T529 144Q529 202 553 250T619 328T717 358Q765 358 798 339T850 284T869 204Q869 147 845 99T779 20T681 -10ZM686 68Q717 68 738 88T770
139T782 201Q782 237 764 258T712 279Q682 279 661 260T628 210T616 147Q616 111 634 90T686 68Z" />
<glyph unicode="&amp;" horiz-adv-x="617" d="M231 -9Q164 -9 117 14T44 78T19 174Q19 236 46 278T122 347T236 390L276 407Q316 418 348 433T400 472T420 530Q420 562 404 577T360 593Q325 593 302 567T278 494Q278 472 283 445T299 387T325 322T360 250Q387
198 422 156T496 88T577 64L560 -11H554Q499 -11 451 16T363 90T288 197Q257 254 235 305T200 403T188 490Q188 545 211 585T274 648T367 671Q434 671 471 636T508 547Q508 488 480 449T401 383T285 338L278 332Q229 319 193 301T136 254T116 182Q116 129 151 100T243
71Q291 71 324 88T389 134L406 144Q439 176 464 219T499 318L580 313Q567 248 533 188T451 87L431 71Q403 48 373 30T308 2T231 -9Z" />
<glyph unicode="&apos;" horiz-adv-x="237" d="M283 686L196 430H116L175 686H283Z" />
<glyph unicode="(" horiz-adv-x="357" d="M176 -190Q121 -113 92 -15T62 184Q62 270 84 352T149 508T252 642T392 747L433 688Q344 630 284 549T193 371T162 170Q162 84 183 2T241 -144L176 -190Z" />
<glyph unicode=")" horiz-adv-x="357" d="M194 747Q249 670 278 572T308 373Q308 287 286 205T221 49T118 -85T-22 -190L-63 -131Q26 -73 86 8T177 186T208 387Q208 473 187 555T129 701L194 747Z" />
<glyph unicode="*" horiz-adv-x="570" d="M398 265L349 375L329 439L282 380L187 287L131 344L227 437L287 482L224 503L115 555L154 627L263 575L320 537L326 609L352 730H438L407 600L381 531L451 555L578 580L583 500L458 475L385 470L421 412L471 303L398 265Z" />
<glyph unicode="+" horiz-adv-x="604" d="M423 572L306 66H213L330 572H423ZM574 364L553 275H62L83 364H574Z" />
<glyph unicode="," horiz-adv-x="261" d="M98 135Q134 135 154 111T174 49Q174 7 153 -35T91 -108T-5 -152L-34 -99Q5 -92 32 -78T77 -44T103 -1L101 1Q96 -3 91 -4T74 -6Q48 -6 33 13T18 56Q18 92 41 113T98 135Z" />
<glyph unicode="-" horiz-adv-x="515" d="M442 313L420 214H79L102 313H442Z" />
<glyph unicode="." horiz-adv-x="269" d="M86 -9Q56 -9 37 7T18 53Q18 91 40 113T97 135Q127 135 146 119T165 73Q165 35 143 13T86 -9Z" />
<glyph unicode="/" horiz-adv-x="432" d="M521 725L55 -70H-53L413 725H521Z" />
<glyph unicode="0" horiz-adv-x="633" d="M299 -9Q227 -9 176 23T97 112T70 246Q70 280 74 314T85 381Q99 441 123 493T184 586T270 648T380 670Q449 670 498 639T573 550T600 417Q600 383 596 350T585 283Q571 223 547 170T487 77T405 14T299 -9ZM305 82Q350
82 384 110T441 187T478 295Q487 328 490 359T494 420Q494 504 462 542T373 580Q326 580 290 552T230 475T190 365Q183 333 179 302T175 241Q175 184 192 149T239 98T305 82Z" />
<glyph unicode="1" horiz-adv-x="395" d="M129 0L230 438Q238 469 245 493T260 543Q240 524 208 507T140 476T72 457L79 555Q114 563 156 580T237 619T298 660H388L235 0H129Z" />
<glyph unicode="2" horiz-adv-x="569" d="M19 0L39 87Q117 139 187 187T313 283T399 378T431 479Q431 527 401 551T326 576Q263 576 225 537T172 435L86 488Q101 541 134 582T217 646T333 670Q398 670 444 648T516 586T541 496Q541 442 519 395T458 305T372 226T274
154T176 90V88Q190 90 216 91T258 92H501L479 0H19Z" />
<glyph unicode="3" horiz-adv-x="570" d="M274 -10Q175 -10 114 41T36 177L144 204Q150 147 184 115T277 82Q317 82 344 98T385 141T399 199Q399 253 366 272T285 291Q278 291 272 291T257 290L278 379Q288 377 298 376T318 375Q357 375 384 388T426 425T441 485Q441
518 426 538T386 568T333 578Q278 578 249 552T205 484L113 530Q140 598 200 634T343 671Q402 671 448 651T520 593T546 503Q546 454 526 416T472 355T394 329L393 327Q428 322 453 306T492 264T506 201Q506 134 473 87T387 15T274 -10Z" />
<glyph unicode="4" horiz-adv-x="584" d="M279 0L317 165H16L35 248Q52 271 70 293T107 338L391 660H533L437 248H559L540 165H418L380 0H279ZM127 248H336L411 570L205 333Q185 311 166 291T127 248Z" />
<glyph unicode="5" horiz-adv-x="571" d="M270 -10Q208 -10 160 13T82 75T42 159L149 191Q153 163 166 138T206 97T278 81Q323 81 352 102T395 157T409 229Q409 269 393 294T349 331T288 343Q253 343 228 334T178 304L96 328L205 660H568L546 568H272L211 384Q233
404 264 414T332 424Q383 424 424 403T490 342T514 242Q514 168 484 111T400 22T270 -10Z" />
<glyph unicode="6" horiz-adv-x="593" d="M312 -10Q233 -10 180 22T99 112T72 248Q72 328 91 403T149 538T248 634T389 670Q466 670 523 633T596 517L496 482Q490 527 458 552T381 577Q333 577 297 553T236 490T197 404T176 307Q194 358 244 385T352 412Q440 412
491 362T543 229Q543 161 515 107T435 21T312 -10ZM313 80Q354 80 381 98T423 148T437 216Q437 264 406 295T314 327Q273 327 244 309T201 261T186 197Q186 169 195 148T222 111T263 88T313 80Z" />
<glyph unicode="7" horiz-adv-x="556" d="M123 660H609L588 570Q505 497 441 411T334 222T267 0H155Q175 110 222 216T343 419T517 596L522 567H101L123 660Z" />
<glyph unicode="8" horiz-adv-x="613" d="M301 -10Q249 -10 203 2T120 39T64 98T43 178Q43 232 66 269T131 330T228 362L224 349Q198 360 180 379T151 424T140 477Q140 536 169 579T248 646T362 670Q424 670 475 650T556 593T587 501Q587 434 545 387T433 324V338Q466
323 490 302T527 254T541 192Q541 130 509 85T423 15T301 -10ZM303 80Q343 80 372 93T417 132T433 191Q433 226 412 250T358 288T287 301Q247 301 217 286T169 246T151 188Q151 153 172 129T228 93T303 80ZM361 382Q396 382 423 396T465 434T480 488Q480 530 449
556T364 583Q328 583 301 569T259 530T244 475Q244 449 258 428T299 395T361 382Z" />
<glyph unicode="9" horiz-adv-x="608" d="M260 -10Q199 -10 154 12T80 74T41 167L147 198Q151 169 164 142T203 99T268 82Q316 82 351 103T411 162T450 248T469 348Q458 316 433 293T376 259T308 247Q246 247 200 272T130 340T105 439Q105 504 135 556T219 639T343
670Q421 670 472 639T548 550T573 413Q573 334 555 259T498 123T400 26T260 -10ZM333 332Q375 332 403 350T446 398T461 462Q461 499 446 525T404 565T340 578Q299 578 270 562T226 517T210 451Q210 420 224 392T266 348T333 332Z" />
<glyph unicode=":" horiz-adv-x="297" d="M100 -9Q70 -9 51 7T32 53Q32 91 54 113T111 135Q141 135 160 119T179 73Q179 35 157 13T100 -9ZM186 366Q156 366 137 382T118 428Q118 466 140 488T197 510Q227 510 246 494T265 448Q265 410 243 388T186 366Z" />
<glyph unicode=";" horiz-adv-x="297" d="M109 135Q145 135 165 111T185 49Q185 7 164 -35T102 -108T6 -152L-23 -99Q16 -92 43 -78T88 -44T114 -1L112 1Q107 -3 102 -4T85 -6Q59 -6 44 13T29 56Q29 92 52 113T109 135ZM197 510Q227 510 246 494T265 448Q265 410
243 388T186 366Q156 366 137 382T118 428Q118 466 140 488T197 510Z" />
<glyph unicode="&lt;" horiz-adv-x="604" d="M624 576L598 468L163 297L519 119L496 21L67 244L92 353L624 576Z" />
<glyph unicode="=" horiz-adv-x="604" d="M587 454L567 366H91L111 454H587ZM540 249L520 161H44L64 249H540Z" />
<glyph unicode="&gt;" horiz-adv-x="604" d="M3 21L29 129L464 300L108 478L131 576L560 353L535 244L3 21Z" />
<glyph unicode="?" horiz-adv-x="555" d="M201 210L236 358Q300 358 347 370T421 410T448 487Q448 532 416 553T334 575Q275 575 237 546T182 468L90 519Q107 562 141 596T226 649T341 668Q404 668 453 648T531 589T559 497Q559 433 530 390T447 322T325 292L304
210H201ZM217 -9Q187 -9 168 7T149 51Q149 88 171 110T227 132Q257 132 276 116T295 71Q295 34 273 13T217 -9Z" />
<glyph unicode="@" horiz-adv-x="945" d="M466 -193Q349 -193 257 -146T113 -11T60 198Q60 300 93 385T186 532T329 628T510 662Q600 662 670 636T790 561T866 445T892 298Q892 226 874 171T826 76T758 16T680 -5Q644 -5 619 8T582 45T573 100Q551 56 508 30T416
4Q367 4 329 28T270 97T248 199Q248 254 264 302T311 387T382 445T473 466Q509 466 538 454T588 417T617 359L640 457H734L661 143Q659 132 658 123T656 104Q656 77 668 69T700 60Q725 60 748 75T789 121T817 196T828 296Q828 368 806 423T741 518T639 577T505
598Q423 598 355 570T238 488T160 362T132 198Q132 119 159 58T232 -45T340 -108T468 -129Q534 -129 579 -116T657 -85L680 -142Q654 -155 625 -167T558 -186T466 -193ZM453 80Q491 80 522 106T571 177T589 273Q589 309 577 335T541 375T487 390Q454 390 428 375T382
334T353 273T342 201Q342 162 355 135T392 94T453 80Z" />
<glyph unicode="A" horiz-adv-x="651" d="M-41 0L355 660H487L576 0H472L414 457L402 560V560L345 460L76 0H-41ZM133 179L153 266H504L484 179H133Z" />
<glyph unicode="B" horiz-adv-x="656" d="M37 0L190 660H447Q533 660 580 620T628 510Q628 461 610 424T559 362T485 328V327Q534 320 564 285T595 201Q595 135 563 90T475 23T343 0H37ZM164 89H334Q407 89 445 119T484 203Q484 230 472 248T437 275T378 284H209L164
89ZM229 374H383Q426 374 456 389T502 430T518 492Q518 535 490 552T417 570H275L229 374Z" />
<glyph unicode="C" horiz-adv-x="678" d="M361 -10Q282 -10 217 22T114 118T76 274Q76 351 98 421T164 548T272 637T421 670Q487 670 538 649T625 584T676 476L567 445Q554 515 516 546T414 577Q358 577 316 551T245 482T202 387T187 281Q187 219 210 175T275
107T368 83Q429 83 464 110T524 183L624 139Q583 71 520 31T361 -10Z" />
<glyph unicode="D" horiz-adv-x="707" d="M37 0L190 660H394Q481 660 542 626T636 530T669 390Q669 306 643 235T568 111T451 29T298 0H37ZM166 91H305Q364 91 411 115T490 180T539 273T556 381Q556 435 537 477T480 544T381 569H277L166 91Z" />
<glyph unicode="E" horiz-adv-x="625" d="M37 0L190 660H661L639 568H276L232 378H517L497 288H212L167 92H544L522 0H37Z" />
<glyph unicode="F" horiz-adv-x="589" d="M626 568H276L232 376H521L500 284H211L145 0H37L190 660H648L626 568Z" />
<glyph unicode="G" horiz-adv-x="709" d="M337 -8Q266 -8 207 25T112 123T76 276Q76 353 99 424T166 550T276 638T426 670Q490 670 543 651T635 592T689 484L584 455Q569 520 527 549T422 578Q365 578 322 554T248 488T203 394T187 286Q187 223 208 178T269 108T364
84Q415 84 452 101T512 149T547 221L554 249H362L382 335H664L581 0H503L532 139L543 126Q524 83 496 53T428 8T337 -8Z" />
<glyph unicode="H" horiz-adv-x="724" d="M724 660L571 0H463L616 660H724ZM298 660L145 0H37L190 660H298ZM605 380L584 288H159L180 380H605Z" />
<glyph unicode="I" horiz-adv-x="298" d="M298 660L145 0H37L190 660H298Z" />
<glyph unicode="J" horiz-adv-x="567" d="M228 -8Q170 -8 127 12T58 68T29 151T45 253L149 258Q131 205 134 166T164 104T237 82Q296 82 325 118T373 238L470 660H579L476 215Q461 151 432 100T355 21T228 -8Z" />
<glyph unicode="K" horiz-adv-x="651" d="M37 0L190 660H298L224 344L583 660H720L410 384L571 0H457L327 314L190 195L145 0H37Z" />
<glyph unicode="L" horiz-adv-x="591" d="M166 92H526L504 0H37L190 660H298L166 92Z" />
<glyph unicode="M" horiz-adv-x="857" d="M37 0L190 660H336L380 277L392 121H393L474 276L693 660H857L704 0H606L694 382L740 562H738L412 0H325L258 560H257L224 382L136 0H37Z" />
<glyph unicode="N" horiz-adv-x="724" d="M37 0L190 660H312L463 243L502 118H503L526 234L625 660H724L571 0H450L296 416L258 540H257L235 426L136 0H37Z" />
<glyph unicode="O" horiz-adv-x="739" d="M358 -10Q281 -10 217 23T115 122T77 280Q77 359 100 429T166 553T273 638T421 670Q498 670 560 636T660 538T698 380Q698 302 676 232T611 107T504 22T358 -10ZM366 84Q421 84 462 109T532 177T574 273T588 380Q588 442
566 486T505 553T412 576Q357 576 315 551T245 483T202 388T188 280Q188 218 210 174T272 107T366 84Z" />
<glyph unicode="P" horiz-adv-x="626" d="M37 0L190 660H399Q504 660 563 609T623 474Q623 407 590 355T497 273T356 243H154L174 334H368Q417 334 449 352T497 400T513 467Q513 513 483 541T389 569H277L145 0H37Z" />
<glyph unicode="Q" horiz-adv-x="739" d="M473 -197Q433 -197 399 -187T337 -156T295 -106T280 -38Q280 -25 282 -11T289 19L376 33Q370 19 368 6T366 -20Q366 -62 397 -83T482 -104Q515 -104 541 -97T591 -76L595 -168Q569 -183 536 -190T473 -197ZM358 -10Q281
-10 217 23T115 122T77 280Q77 359 100 429T166 553T273 638T421 670Q498 670 560 636T660 538T698 380Q698 302 676 232T611 107T504 22T358 -10ZM366 84Q421 84 462 109T532 177T574 273T588 380Q588 442 566 486T505 553T412 576Q357 576 315 551T245 483T202
388T188 280Q188 218 210 174T272 107T366 84Z" />
<glyph unicode="R" horiz-adv-x="649" d="M37 0L190 660H426Q519 660 573 612T628 478Q628 418 600 372T526 299T425 264L379 256H188L208 345H373Q422 345 454 362T503 410T519 476Q519 522 488 545T403 569H276L144 0H37ZM461 0L349 282L452 297L574 0H461Z" />
<glyph unicode="S" horiz-adv-x="639" d="M335 -9Q263 -9 203 12T98 75T28 177L115 235Q134 181 168 148T246 99T340 83Q384 83 413 97T456 135T471 184Q471 217 450 235T387 266L283 296Q233 311 198 335T143 393T123 469Q123 527 154 573T240 645T371 671Q470
671 536 632T637 515L549 459Q534 507 506 532T442 568T367 578Q323 578 294 566T250 531T235 483Q235 453 259 429T324 393L436 359Q510 337 546 298T583 199Q583 135 550 89T460 17T335 -9Z" />
<glyph unicode="T" horiz-adv-x="609" d="M675 660L653 568H433L302 0H194L325 568H102L124 660H675Z" />
<glyph unicode="U" horiz-adv-x="696" d="M326 -10Q236 -10 175 25T91 128T90 288L177 660H285L195 268Q181 207 195 166T246 104T334 83Q407 83 448 128T507 251L602 660H709L611 233Q584 121 514 56T326 -10Z" />
<glyph unicode="V" horiz-adv-x="639" d="M717 660L323 0H198L113 660H219L268 222L279 92L343 221L602 660H717Z" />
<glyph unicode="W" horiz-adv-x="954" d="M158 0L121 660H225L244 102L504 660H620L635 98L906 660H1023L680 0H552L538 396L540 550H539L472 396L283 0H158Z" />
<glyph unicode="X" horiz-adv-x="610" d="M-39 0L267 346L135 660H253L346 423L548 660H671L386 335L529 0H414L311 256L91 0H-39Z" />
<glyph unicode="Y" horiz-adv-x="589" d="M183 0L242 254L109 660H219L285 445L312 344L386 450L548 660H670L348 246L290 0H183Z" />
<glyph unicode="Z" horiz-adv-x="601" d="M-7 0L14 90L488 569H120L142 660H638L617 571L142 91H532L510 0H-7Z" />
<glyph unicode="[" horiz-adv-x="358" d="M419 640H272L104 -83H252L231 -168H-12L195 725H438L419 640Z" />
<glyph unicode="\" horiz-adv-x="468" d="M131 725H225L373 -70H278L131 725Z" />
<glyph unicode="]" horiz-adv-x="358" d="M-48 -83H99L267 640H119L140 725H383L176 -168H-67L-48 -83Z" />
<glyph unicode="^" horiz-adv-x="576" d="M50 355L350 728H447L573 355H477L383 648L157 355H50Z" />
<glyph unicode="_" horiz-adv-x="539" d="M461 -88L440 -181H-99L-78 -88H461Z" />
<glyph unicode="`" horiz-adv-x="500" d="M377 746L418 578H340L274 746H377Z" />
<glyph unicode="a" horiz-adv-x="617" d="M237 -8Q182 -8 139 18T72 93T48 206Q48 267 66 322T118 419T198 486T300 510Q341 510 374 496T431 455T462 389L488 500H595L479 0H384L401 93Q376 47 333 20T237 -8ZM274 77Q306 77 334 94T384 141T418 210T431 293Q431
333 417 362T377 408T316 424Q279 424 250 407T199 361T165 293T153 212Q153 169 167 139T208 93T274 77Z" />
<glyph unicode="b" horiz-adv-x="617" d="M387 508Q439 508 480 483T545 410T569 293Q569 231 550 177T498 80T419 14T319 -10Q276 -10 241 5T184 47T154 110L127 0H22L190 725H297L226 420Q250 459 292 483T387 508ZM304 76Q337 76 366 92T417 138T451 206T463
289Q463 334 448 363T407 408T346 423Q310 423 281 406T230 360T197 290T186 205Q186 147 216 112T304 76Z" />
<glyph unicode="c" horiz-adv-x="545" d="M280 -9Q208 -9 157 21T78 102T50 217Q50 302 83 367T177 471T320 509Q380 509 425 489T498 431T532 347L425 325Q423 367 397 396T316 425Q281 425 252 409T202 364T169 297T157 214Q157 174 172 143T215 93T286 75Q321
75 352 94T396 151L496 116Q469 56 412 24T280 -9Z" />
<glyph unicode="d" horiz-adv-x="617" d="M237 -8Q182 -8 139 18T72 93T48 206Q48 267 66 322T118 419T198 486T300 510Q341 510 374 496T431 455T462 389L539 725H646L479 0H384L401 93Q376 47 333 20T237 -8ZM273 77Q306 77 335 94T385 141T418 210T431 293Q431
333 417 362T377 408T316 424Q279 424 250 407T199 361T165 293T153 212Q153 169 167 139T208 93T273 77Z" />
<glyph unicode="e" horiz-adv-x="575" d="M278 -9Q207 -9 156 20T77 101T49 216Q49 296 81 362T174 469T321 509Q385 509 431 483T501 411T525 302Q525 282 523 261T513 219H110V301H455L416 273Q420 285 421 296T422 318Q422 351 410 375T373 412T316 425Q271
425 240 407T189 357T162 287T154 212Q154 170 170 140T216 92T286 75Q333 75 362 95T410 146L496 100Q476 66 444 42T370 4T278 -9Z" />
<glyph unicode="f" horiz-adv-x="394" d="M62 0L196 580Q209 635 234 668T298 716T385 732Q416 732 442 726T482 708L452 630Q443 636 427 641T391 646Q350 646 328 628T296 562L280 491L276 464L169 0H62ZM60 416L80 500H432L412 416H60Z" />
<glyph unicode="g" horiz-adv-x="614" d="M212 -215Q169 -215 130 -204T62 -171T14 -118T-10 -48L97 -22Q105 -74 132 -103T222 -133Q256 -133 286 -120T339 -77T374 10L402 137L414 145Q399 84 352 48T241 12Q185 12 141 39T72 114T46 222Q46 284 64 336T116
427T196 488T297 510Q344 510 381 492T440 438T464 351L448 338L485 500H592L477 8Q459 -73 422 -121T331 -192T212 -215ZM278 97Q321 97 354 123T408 195T428 295Q428 335 414 363T374 408T312 424Q264 424 229 399T173 329T153 229Q153 171 185 134T278 97Z"
/>
<glyph unicode="h" horiz-adv-x="603" d="M22 0L190 725H297L221 396L205 384Q218 424 246 452T311 495T393 510Q447 510 486 486T541 416T544 307L472 0H365L435 300Q448 357 424 389T348 422Q308 422 277 404T224 352T190 265L129 0H22Z" />
<glyph unicode="i" horiz-adv-x="267" d="M220 584Q190 584 172 600T156 644Q157 679 178 698T231 717Q262 717 279 702T296 659Q294 622 273 603T220 584ZM245 500L129 0H22L138 500H245Z" />
<glyph unicode="j" horiz-adv-x="267" d="M220 584Q190 584 172 600T156 644Q157 679 178 698T231 717Q262 717 279 702T296 659Q294 622 273 603T220 584ZM-46 -215Q-79 -215 -110 -207T-161 -180L-130 -96Q-116 -107 -99 -114T-63 -122Q-34 -122 -17 -106T10
-45L138 500H245L114 -66Q96 -144 53 -179T-46 -215Z" />
<glyph unicode="k" horiz-adv-x="565" d="M593 500L324 273L306 263L116 102L131 222L456 500H593ZM297 725L129 0H22L190 725H297ZM347 332L492 0H381L266 273L347 332Z" />
<glyph unicode="l" horiz-adv-x="311" d="M172 -8Q97 -8 67 36T54 152L187 725H294L161 151Q151 112 166 95T218 77Q232 77 242 78T261 81L238 3Q222 -3 208 -5T172 -8Z" />
<glyph unicode="m" horiz-adv-x="934" d="M22 0L138 500H232L211 374L201 381Q222 445 274 477T390 510Q443 510 481 486T534 415T534 304L463 0H356L426 298Q440 356 418 389T346 422Q306 422 275 404T224 352T190 265L129 0H22ZM691 0L760 298Q773 356 751 389T681
422Q640 422 610 404T558 352T525 265L515 362Q542 436 598 473T724 510Q777 510 815 486T868 415T869 304L798 0H691Z" />
<glyph unicode="n" horiz-adv-x="603" d="M22 0L138 500H232L211 374L201 381Q222 445 275 477T392 510Q448 510 487 486T542 416T543 305L472 0H365L435 300Q448 357 424 389T348 422Q308 422 277 404T224 352T190 265L129 0H22Z" />
<glyph unicode="o" horiz-adv-x="596" d="M282 -9Q208 -9 157 21T77 102T49 216Q49 301 82 367T175 471T316 509Q390 509 441 479T520 398T547 284Q547 201 515 135T422 30T282 -9ZM284 75Q317 75 345 91T395 136T428 203T440 286Q440 326 427 357T385 406T313
425Q280 425 251 409T201 365T168 298T156 214Q156 176 170 144T212 94T284 75Z" />
<glyph unicode="p" horiz-adv-x="617" d="M-26 -210L138 500H233L208 363L196 356Q208 404 235 438T303 490T390 508Q441 508 481 483T545 411T569 296Q569 233 550 178T497 80T418 14T318 -10Q271 -10 234 8T174 61T149 146L166 162L81 -210H-26ZM304 76Q337
76 366 92T417 139T451 207T463 290Q463 333 449 362T408 407T346 423Q310 423 281 406T231 360T198 290T186 205Q186 147 216 112T304 76Z" />
<glyph unicode="q" horiz-adv-x="617" d="M325 -210L403 127L410 126Q390 64 343 28T237 -8Q183 -8 140 18T73 92T48 206Q48 268 67 323T119 421T199 486T300 510Q348 510 384 492T441 440T465 361L452 347L488 500H595L431 -210H325ZM273 77Q307 77 335 94T385
141T419 210T431 293Q431 333 417 362T377 408T316 424Q279 424 250 407T199 361T165 293T153 212Q153 169 167 139T208 93T273 77Z" />
<glyph unicode="r" horiz-adv-x="399" d="M22 0L138 500H228L212 365L201 375Q217 417 244 447T308 493T383 510Q399 510 411 508T433 501L404 405Q394 410 382 412T350 415Q314 415 282 399T226 348T189 259L129 0H22Z" />
<glyph unicode="s" horiz-adv-x="515" d="M253 -11Q196 -11 149 6T66 55T11 130L92 179Q113 128 153 101T251 73Q297 73 322 91T347 139Q347 161 333 174T290 196L210 220Q144 238 113 273T81 356Q81 401 105 435T174 490T280 510Q353 510 409 480T491 393L414
341Q403 367 383 386T337 416T278 427Q229 427 205 411T181 366Q181 341 200 328T245 307L342 278Q394 263 423 231T452 154Q452 103 427 66T357 9T253 -11Z" />
<glyph unicode="t" horiz-adv-x="412" d="M241 -8Q189 -8 153 11T101 69T98 161L201 609L316 641L203 160Q193 116 215 97T272 77Q296 77 313 83T345 99L353 20Q327 4 300 -2T241 -8ZM58 416L77 500H432L413 416H58Z" />
<glyph unicode="u" horiz-adv-x="602" d="M215 -8Q161 -8 121 16T63 85T60 194L131 500H238L169 203Q155 143 180 112T257 80Q297 80 327 97T379 149T411 235L473 500H580L464 0H369L390 126L400 118Q380 55 330 24T215 -8Z" />
<glyph unicode="v" horiz-adv-x="510" d="M446 500H565L258 0H141L61 500H167L222 54L198 58L446 500Z" />
<glyph unicode="w" horiz-adv-x="826" d="M117 0L71 500H175L202 112L402 500H508L550 107L750 500H864L593 0H476L431 370L236 0H117Z" />
<glyph unicode="x" horiz-adv-x="539" d="M-38 0L224 279L254 286L438 500H566L316 230L283 218L94 0H-38ZM343 0L242 225L217 237L86 500H205L300 282L321 278L461 0H343Z" />
<glyph unicode="y" horiz-adv-x="520" d="M22 -215Q-18 -215 -48 -206T-97 -181L-60 -98Q-26 -129 19 -129Q49 -129 72 -113T118 -63L157 0L69 500H176L212 219L228 95L294 213L457 500H575L214 -81Q185 -129 155 -158T91 -201T22 -215Z" />
<glyph unicode="z" horiz-adv-x="513" d="M-5 0L13 77L316 369L372 418L286 416H87L107 500H514L496 420L215 150L140 83L243 84H438L418 0H-5Z" />
<glyph unicode="{" horiz-adv-x="357" d="M214 -190Q126 -190 88 -153T65 -49L107 132Q120 188 100 212T34 237H27L46 319H64Q106 319 132 337T170 404L219 620Q233 681 276 714T397 747H432L415 671H407Q359 671 338 654T307 599L259 390Q249 343 218 312T139
272Q181 261 198 230T204 149L159 -44Q151 -80 168 -98T228 -117H233L216 -190H214Z" />
<glyph unicode="|" horiz-adv-x="263" d="M288 725L81 -168H-12L195 725H288Z" />
<glyph unicode="}" horiz-adv-x="357" d="M-62 -190L-45 -117H-38Q12 -117 33 -98T63 -42L111 166Q122 214 153 246T231 285Q189 296 172 327T166 408L210 598Q219 635 202 653T142 671H136L154 747H165Q219 747 253 730T302 683T305 609L263 425Q250 368 270
344T336 319H343L324 237H306Q264 237 238 220T200 152L151 -63Q137 -124 95 -157T-26 -190H-62Z" />
<glyph unicode="~" horiz-adv-x="556" d="M546 396Q532 338 506 303T445 251T376 234Q342 234 321 244T282 269T247 294T205 305Q181 305 162 288T132 235H40Q54 292 80 328T141 381T213 398Q245 398 266 387T305 362T340 337T381 326Q405 326 424 343T454 396H546Z" />
<glyph unicode="&#xa0;" horiz-adv-x="321" />
<glyph unicode="&#xa1;" horiz-adv-x="274" d="M183 290L156 104L95 -160H-18L43 104L101 290H183ZM178 509Q208 509 227 493T246 449Q246 412 224 390T168 368Q138 368 120 384T101 429Q101 466 122 487T178 509Z" />
<glyph unicode="&#xa2;" horiz-adv-x="568" d="M283 -9Q212 -9 161 21T83 102T55 216Q55 303 88 368T182 471T322 509Q384 509 429 488T501 430T537 347L438 326Q435 370 405 401T320 432Q271 432 233 404T174 327T152 217Q152 176 168 142T215 88T290 68Q328
68 361 89T408 151L501 118Q475 57 417 24T283 -9ZM178 -100L339 600H418L256 -100H178Z" />
<glyph unicode="&#xa3;" horiz-adv-x="607" d="M82 276L98 344H476L460 276H82ZM413 -10Q370 -10 337 1T277 30T228 65T182 94T132 106Q114 106 104 98T94 77Q94 63 103 55T130 47Q156 47 176 69T209 128T221 206Q221 239 215 269T202 329T189 389T183 451Q183
516 213 565T294 643T405 671Q460 671 503 650T572 589T602 496L508 472Q504 518 479 550T403 583Q364 583 336 564T293 515T278 447Q278 409 284 376T295 307T301 228Q301 183 288 141T252 64T195 10T122 -10Q79 -10 51 14T22 73Q22 112 53 139T137 166Q170 166
197 157T249 133T298 104T348 80T405 70Q442 70 461 92T491 167L568 145Q559 93 538 59T484 7T413 -10Z" />
<glyph unicode="&#xa4;" horiz-adv-x="663" d="M350 538Q412 538 459 512T534 438T561 329Q561 268 534 221T460 146T350 119Q288 119 241 146T166 220T138 329Q138 390 165 437T240 511T350 538ZM350 452Q299 452 266 418T233 329Q233 275 266 240T350 205Q400
205 433 240T466 329Q466 383 433 417T350 452ZM145 598L267 473L207 413L80 533L145 598ZM206 247L265 186L145 59L80 124L206 247ZM493 243L619 124L554 59L432 183L493 243ZM554 598L619 533L495 411L435 472L554 598Z" />
<glyph unicode="&#xa5;" horiz-adv-x="617" d="M201 0L227 111H55L68 167H240L257 240H85L99 299H204L256 295L122 660H226L304 428L330 331H332L392 430L558 660H681L389 295L435 299H541L527 240H355L338 167H511L498 111H325L299 0H201Z" />
<glyph unicode="&#xa6;" horiz-adv-x="263" d="M288 725L203 357H109L195 725H288ZM166 200L81 -168H-12L73 200H166Z" />
<glyph unicode="&#xa7;" horiz-adv-x="600" d="M261 -110Q206 -110 157 -95T71 -50T13 25L95 74Q114 29 158 -1T274 -32Q331 -32 361 -10T391 50Q391 78 374 94T308 124L191 158Q111 180 75 214T38 308Q38 347 57 375T111 420T189 439L224 397Q172 394 149 373T125
323Q125 294 146 274T220 238L346 204Q416 184 451 154T486 72Q486 22 462 -19T388 -85T261 -110ZM413 121L390 169Q420 169 442 177T476 202T489 242Q489 269 472 286T406 316L274 355Q231 367 203 385T162 431T148 496Q148 544 173 583T246 646T365 670Q409 670
453 658T537 619T605 544L525 495Q496 545 455 566T357 588Q320 588 296 577T259 549T246 508Q246 476 263 459T332 427L446 394Q510 377 543 345T576 261Q576 224 558 193T504 142T413 121Z" />
<glyph unicode="&#xa8;" horiz-adv-x="500" d="M434 574Q408 574 392 588T375 627Q375 662 395 681T447 700Q473 700 489 686T506 647Q506 611 486 593T434 574ZM232 574Q206 574 190 588T173 627Q173 662 193 681T245 700Q271 700 287 686T303 647Q303 611 283
593T232 574Z" />
<glyph unicode="&#xa9;" horiz-adv-x="798" d="M418 -10Q316 -10 239 34T119 156T75 330Q75 428 118 504T239 625T418 670Q519 670 596 626T717 505T760 330Q760 233 717 156T597 35T418 -10ZM418 61Q497 61 557 96T650 192T684 330Q684 406 651 467T557 564T418
599Q339 599 279 564T185 468T151 330Q151 254 184 193T278 96T418 61ZM424 142Q338 142 289 192T240 328Q240 415 289 465T424 515Q486 515 526 488T585 415L515 381Q503 410 481 424T425 438Q378 438 351 410T323 328Q323 276 350 247T425 218Q461 218 485 232T521
279L588 250Q567 197 527 170T424 142Z" />
<glyph unicode="&#xaa;" horiz-adv-x="377" d="M184 321Q134 321 101 358T68 459Q68 502 80 539T115 605T169 649T239 665Q265 665 286 653T321 616T332 553L316 528L348 659H431L353 329H279L314 490L312 437Q296 379 261 350T184 321ZM22 186L36 250H340L325
186H22ZM217 386Q247 386 267 406T297 459T307 523Q307 556 291 577T246 599Q214 599 194 579T163 527T153 463Q153 430 169 408T217 386Z" />
<glyph unicode="&#xab;" horiz-adv-x="516" d="M325 461L127 235L131 304L226 69H128L48 265L219 461H325ZM520 461L322 235L326 304L421 69H323L243 265L414 461H520Z" />
<glyph unicode="&#xac;" horiz-adv-x="604" d="M560 317L515 121H418L463 317H560ZM571 364L551 275H65L85 364H571Z" />
<glyph unicode="&#xad;" horiz-adv-x="515" d="M442 313L420 214H79L102 313H442Z" />
<glyph unicode="&#xae;" horiz-adv-x="800" d="M419 670Q523 670 600 628T719 510T761 330Q761 227 719 151T600 32T419 -10Q315 -10 238 32T118 150T76 330Q76 433 118 509T237 628T419 670ZM363 514V146H286V514H363ZM473 317L590 146H500L408 294L473 317ZM419
599Q338 599 278 566T185 473T152 330Q152 248 185 188T278 94T419 61Q500 61 559 94T652 187T685 330Q685 412 652 472T560 566T419 599ZM445 514Q485 514 516 499T564 458T582 395Q582 340 543 309T441 277H332V333H437Q469 333 486 347T504 393Q504 424 487
438T437 453H332V514H445Z" />
<glyph unicode="&#xaf;" horiz-adv-x="500" d="M509 666L492 588H164L182 666H509Z" />
<glyph unicode="&#xb0;" horiz-adv-x="454" d="M285 327Q232 327 192 349T128 409T105 499Q105 549 128 588T191 648T285 670Q338 670 378 649T441 588T464 499Q464 448 441 410T378 349T285 327ZM285 406Q326 406 352 432T378 499Q378 540 352 566T285 592Q244
592 218 566T191 499Q191 459 217 433T285 406Z" />
<glyph unicode="&#xb1;" horiz-adv-x="604" d="M438 644L327 163H238L349 644H438ZM593 447L573 359H81L102 447H593ZM510 87L490 0H-1L19 87H510Z" />
<glyph unicode="&#xb2;" horiz-adv-x="373" d="M69 333L84 396Q129 424 172 449T249 501T304 553T325 610Q325 641 309 653T268 666Q234 666 213 644T185 583L108 617Q122 671 163 703T272 735Q338 735 374 703T411 624Q411 584 391 552T338 492T268 443T195 401V400Q207
401 225 401T255 402H385L370 333H69Z" />
<glyph unicode="&#xb3;" horiz-adv-x="355" d="M220 327Q154 327 112 358T60 443L145 461Q149 431 167 413T220 394Q251 394 268 412T286 455Q286 479 270 491T221 503Q216 503 212 503T203 502L217 562Q222 561 228 561T242 560Q275 560 292 575T310 617Q310
643 293 654T252 666Q224 666 206 653T179 614L104 645Q120 687 159 711T258 735Q317 735 356 708T395 632Q395 590 370 561T302 529L301 528Q332 524 352 506T373 452Q373 412 352 384T296 342T220 327Z" />
<glyph unicode="&#xb4;" horiz-adv-x="600" d="M396 746H512L368 578H278L396 746Z" />
<glyph unicode="&#xb5;" horiz-adv-x="608" d="M-26 -210L138 500H245L176 203Q162 144 187 112T263 80Q304 80 334 97T386 149T418 235L480 500H587L471 0H376L389 79Q364 36 322 14T229 -8Q197 -8 165 3T112 42L143 58L81 -210H-26Z" />
<glyph unicode="&#xb6;" horiz-adv-x="685" d="M214 -100L280 186Q238 188 201 203T136 245T93 310T77 394Q77 480 114 539T217 629T375 660H696L520 -100H430L586 574H463L307 -100H214ZM299 273L369 574H338Q290 574 252 555T191 498T168 402Q168 347 203 310T299 273Z" />
<glyph unicode="&#xb7;" horiz-adv-x="237" d="M137 283Q107 283 88 299T69 345Q69 383 91 405T148 427Q178 427 197 411T216 365Q216 327 194 305T137 283Z" />
<glyph unicode="&#xb8;" horiz-adv-x="500" d="M137 6L183 29Q230 12 255 -17T281 -88Q281 -129 263 -157T214 -201T147 -216Q112 -216 84 -203T42 -172L77 -115Q91 -130 109 -137T147 -144Q175 -144 192 -126T210 -81Q210 -52 192 -32T137 6Z" />
<glyph unicode="&#xb9;" horiz-adv-x="263" d="M143 333L200 575Q203 587 207 601T214 627T218 639Q196 622 162 609T100 591L108 666Q130 670 157 680T209 703T250 729H321L229 333H143Z" />
<glyph unicode="&#xba;" horiz-adv-x="375" d="M227 321Q159 321 119 360T78 464Q78 519 100 564T163 637T260 665Q328 665 368 626T409 522Q409 470 388 424T325 350T227 321ZM21 186L36 250H339L324 186H21ZM231 385Q262 385 282 406T313 459T324 524Q324 558
307 579T257 600Q226 600 205 579T174 527T163 461Q163 428 180 407T231 385Z" />
<glyph unicode="&#xbb;" horiz-adv-x="517" d="M4 69L199 293L198 225L103 461H199L281 265L110 69H4ZM199 69L394 293L393 225L298 461H394L476 265L305 69H199Z" />
<glyph unicode="&#xbc;" horiz-adv-x="817" d="M384 524L441 766Q444 778 448 792T455 818T459 830Q437 813 403 800T341 782L349 857Q371 861 398 871T450 894T491 920H562L470 524H384ZM56 0L675 660H774L154 0H56ZM601 -4L623 91H444L458 150Q467 162 474 170T488
187T508 210L664 393H766L709 150H784L771 91H696L674 -4H601ZM534 150H635L677 323L559 178Q551 170 545 163T534 150Z" />
<glyph unicode="&#xbd;" horiz-adv-x="903" d="M384 524L441 766Q444 778 448 792T455 818T459 830Q437 813 403 800T341 782L349 857Q371 861 398 871T450 894T491 920H562L470 524H384ZM56 0L675 660H774L154 0H56ZM521 -4L536 59Q581 87 624 112T701 164T756
216T777 273Q777 304 761 316T720 329Q686 329 665 307T637 246L560 280Q574 334 615 366T724 398Q790 398 826 366T863 287Q863 247 843 215T790 155T720 106T647 64V63Q659 64 677 64T707 65H837L822 -4H521Z" />
<glyph unicode="&#xbe;" horiz-adv-x="909" d="M461 518Q395 518 353 549T301 634L386 652Q390 622 408 604T461 585Q492 585 509 603T527 646Q527 670 511 682T462 694Q457 694 453 694T444 693L458 753Q463 752 469 752T483 751Q516 751 533 766T551 808Q551
834 534 845T493 857Q465 857 447 844T420 805L345 836Q361 878 400 902T499 926Q558 926 597 899T636 823Q636 781 611 752T543 720L542 719Q573 715 593 697T614 643Q614 603 593 575T537 533T461 518ZM148 0L767 660H866L246 0H148ZM694 -4L716 91H537L551 150Q560
162 567 170T581 187T601 210L757 393H859L802 150H877L864 91H789L767 -4H694ZM627 150H728L770 323L652 178Q644 170 638 163T627 150Z" />
<glyph unicode="&#xbf;" horiz-adv-x="548" d="M355 290L320 142Q256 142 209 130T135 90T108 13Q108 -32 140 -53T222 -75Q281 -75 319 -46T374 32L466 -19Q449 -62 415 -96T330 -149T215 -168Q152 -168 103 -148T25 -89T-3 3Q-3 67 26 110T109 178T231 208L252
290H355ZM339 509Q369 509 388 493T407 449Q407 412 385 390T329 368Q299 368 280 384T261 429Q261 466 283 487T339 509Z" />
<glyph unicode="&#xc0;" horiz-adv-x="651" d="M-41 0L355 660H487L576 0H472L414 457L402 560V560L345 460L76 0H-41ZM133 179L153 266H504L484 179H133ZM447 897L485 737H411L346 897H447Z" />
<glyph unicode="&#xc1;" horiz-adv-x="651" d="M-41 0L355 660H487L576 0H472L414 457L402 560V560L345 460L76 0H-41ZM133 179L153 266H504L484 179H133ZM471 897H584L461 737H375L471 897Z" />
<glyph unicode="&#xc2;" horiz-adv-x="651" d="M-41 0L355 660H487L576 0H472L414 457L402 560V560L345 460L76 0H-41ZM133 179L153 266H504L484 179H133ZM523 897L593 737H511L458 839L360 737H267L412 897H523Z" />
<glyph unicode="&#xc3;" horiz-adv-x="651" d="M-41 0L355 660H487L576 0H472L414 457L402 560V560L345 460L76 0H-41ZM133 179L153 266H504L484 179H133ZM634 877Q623 808 587 772T505 736Q479 736 461 746T430 769T404 792T377 802Q360 802 347 784T326 735H253Q265
805 300 841T382 877Q407 877 425 867T456 844T482 821T510 811Q527 811 540 829T562 877H634Z" />
<glyph unicode="&#xc4;" horiz-adv-x="651" d="M-41 0L355 660H487L576 0H472L414 457L402 560V560L345 460L76 0H-41ZM133 179L153 266H504L484 179H133ZM538 734Q512 734 496 748T479 787Q479 822 499 841T551 860Q577 860 593 846T610 807Q610 771 590 753T538
734ZM336 734Q310 734 294 748T277 787Q277 822 297 841T349 860Q375 860 391 846T407 807Q407 771 387 753T336 734Z" />
<glyph unicode="&#xc5;" horiz-adv-x="651" d="M-41 0L355 660H487L576 0H472L414 457L402 560V560L345 460L76 0H-41ZM133 179L153 266H504L484 179H133ZM434 846Q488 846 522 815T556 736Q556 679 518 642T423 605Q369 605 335 636T301 714Q301 771 338 808T434
846ZM432 789Q404 789 385 771T365 720Q365 695 382 679T426 662Q453 662 472 680T491 731Q491 756 475 772T432 789Z" />
<glyph unicode="&#xc6;" horiz-adv-x="929" d="M-55 0L440 660H965L944 570H613L568 378H820L800 289H548L501 90H848L827 0H377L425 208H220L67 0H-55ZM280 294H445L509 571H488L280 294Z" />
<glyph unicode="&#xc7;" horiz-adv-x="678" d="M361 -10Q282 -10 217 22T114 118T76 274Q76 351 98 421T164 548T272 637T421 670Q487 670 538 649T625 584T676 476L567 445Q554 515 516 546T414 577Q358 577 316 551T245 482T202 387T187 281Q187 219 210 175T275
107T368 83Q429 83 464 110T524 183L624 139Q583 71 520 31T361 -10ZM289 6L335 29Q382 12 407 -17T433 -88Q433 -129 415 -157T366 -201T299 -216Q264 -216 236 -203T194 -172L229 -115Q243 -130 261 -137T299 -144Q327 -144 344 -126T362 -81Q362 -52 344 -32T289
6Z" />
<glyph unicode="&#xc8;" horiz-adv-x="625" d="M37 0L190 660H661L639 568H276L232 378H517L497 288H212L167 92H544L522 0H37ZM443 897L481 737H407L342 897H443Z" />
<glyph unicode="&#xc9;" horiz-adv-x="625" d="M37 0L190 660H661L639 568H276L232 378H517L497 288H212L167 92H544L522 0H37ZM475 897H588L465 737H379L475 897Z" />
<glyph unicode="&#xca;" horiz-adv-x="625" d="M37 0L190 660H661L639 568H276L232 378H517L497 288H212L167 92H544L522 0H37ZM529 897L599 737H517L464 839L366 737H273L418 897H529Z" />
<glyph unicode="&#xcb;" horiz-adv-x="625" d="M37 0L190 660H661L639 568H276L232 378H517L497 288H212L167 92H544L522 0H37ZM544 734Q518 734 502 748T485 787Q485 822 505 841T557 860Q583 860 599 846T616 807Q616 771 596 753T544 734ZM342 734Q316 734
300 748T283 787Q283 822 303 841T355 860Q381 860 397 846T413 807Q413 771 393 753T342 734Z" />
<glyph unicode="&#xcc;" horiz-adv-x="298" d="M298 660L145 0H37L190 660H298ZM261 897L299 737H225L160 897H261Z" />
<glyph unicode="&#xcd;" horiz-adv-x="298" d="M298 660L145 0H37L190 660H298ZM311 897H424L301 737H215L311 897Z" />
<glyph unicode="&#xce;" horiz-adv-x="298" d="M298 660L145 0H37L190 660H298ZM353 897L423 737H341L288 839L190 737H97L242 897H353Z" />
<glyph unicode="&#xcf;" horiz-adv-x="298" d="M360 734Q334 734 318 748T301 787Q301 822 321 841T373 860Q399 860 415 846T431 807Q431 771 411 753T360 734ZM174 734Q148 734 132 748T115 787Q115 822 135 841T187 860Q213 860 229 846T245 807Q245 771 225
753T174 734ZM298 660L145 0H37L190 660H298Z" />
<glyph unicode="&#xd0;" horiz-adv-x="727" d="M23 288L43 377H421L401 288H23ZM58 0L211 660H414Q502 660 563 626T656 530T689 390Q689 306 663 235T589 111T472 29T319 0H58ZM186 91H326Q385 91 431 115T510 180T560 273T577 381Q577 435 558 477T500 544T402
569H297L186 91Z" />
<glyph unicode="&#xd1;" horiz-adv-x="724" d="M37 0L190 660H312L463 243L502 118H503L526 234L625 660H724L571 0H450L296 416L258 540H257L235 426L136 0H37ZM671 877Q660 808 624 772T542 736Q516 736 498 746T467 769T441 792T414 802Q397 802 384 784T363
735H290Q302 805 337 841T419 877Q444 877 462 867T493 844T519 821T547 811Q564 811 577 829T599 877H671Z" />
<glyph unicode="&#xd2;" horiz-adv-x="739" d="M358 -10Q281 -10 217 23T115 122T77 280Q77 359 100 429T166 553T273 638T421 670Q498 670 560 636T660 538T698 380Q698 302 676 232T611 107T504 22T358 -10ZM366 84Q421 84 462 109T532 177T574 273T588 380Q588
442 566 486T505 553T412 576Q357 576 315 551T245 483T202 388T188 280Q188 218 210 174T272 107T366 84ZM460 897L498 737H424L359 897H460Z" />
<glyph unicode="&#xd3;" horiz-adv-x="739" d="M358 -10Q281 -10 217 23T115 122T77 280Q77 359 100 429T166 553T273 638T421 670Q498 670 560 636T660 538T698 380Q698 302 676 232T611 107T504 22T358 -10ZM366 84Q421 84 462 109T532 177T574 273T588 380Q588
442 566 486T505 553T412 576Q357 576 315 551T245 483T202 388T188 280Q188 218 210 174T272 107T366 84ZM494 897H607L484 737H398L494 897Z" />
<glyph unicode="&#xd4;" horiz-adv-x="739" d="M358 -10Q281 -10 217 23T115 122T77 280Q77 359 100 429T166 553T273 638T421 670Q498 670 560 636T660 538T698 380Q698 302 676 232T611 107T504 22T358 -10ZM366 84Q421 84 462 109T532 177T574 273T588 380Q588
442 566 486T505 553T412 576Q357 576 315 551T245 483T202 388T188 280Q188 218 210 174T272 107T366 84ZM546 897L616 737H534L481 839L383 737H290L435 897H546Z" />
<glyph unicode="&#xd5;" horiz-adv-x="739" d="M358 -10Q281 -10 217 23T115 122T77 280Q77 359 100 429T166 553T273 638T421 670Q498 670 560 636T660 538T698 380Q698 302 676 232T611 107T504 22T358 -10ZM366 84Q421 84 462 109T532 177T574 273T588 380Q588
442 566 486T505 553T412 576Q357 576 315 551T245 483T202 388T188 280Q188 218 210 174T272 107T366 84ZM657 877Q646 808 610 772T528 736Q502 736 484 746T453 769T427 792T400 802Q383 802 370 784T349 735H276Q288 805 323 841T405 877Q430 877 448 867T479
844T505 821T533 811Q550 811 563 829T585 877H657Z" />
<glyph unicode="&#xd6;" horiz-adv-x="739" d="M358 -10Q281 -10 217 23T115 122T77 280Q77 359 100 429T166 553T273 638T421 670Q498 670 560 636T660 538T698 380Q698 302 676 232T611 107T504 22T358 -10ZM366 84Q421 84 462 109T532 177T574 273T588 380Q588
442 566 486T505 553T412 576Q357 576 315 551T245 483T202 388T188 280Q188 218 210 174T272 107T366 84ZM561 734Q535 734 519 748T502 787Q502 822 522 841T574 860Q600 860 616 846T633 807Q633 771 613 753T561 734ZM359 734Q333 734 317 748T300 787Q300
822 320 841T372 860Q398 860 414 846T430 807Q430 771 410 753T359 734Z" />
<glyph unicode="&#xd7;" horiz-adv-x="604" d="M95 91L40 164L515 549L570 476L95 91ZM423 91L116 492L187 549L494 148L423 91Z" />
<glyph unicode="&#xd8;" horiz-adv-x="739" d="M224 104L184 148L551 560L588 512L224 104ZM39 -14L172 136L213 92L117 -14H39ZM594 517L561 569L657 675H736L594 517ZM358 -10Q281 -10 217 23T115 122T77 280Q77 359 100 429T166 553T273 638T421 670Q498 670
560 636T660 538T698 380Q698 302 676 232T611 107T504 22T358 -10ZM366 84Q421 84 462 109T532 177T574 273T588 380Q588 442 566 486T505 553T412 576Q357 576 315 551T245 483T202 388T188 280Q188 218 210 174T272 107T366 84Z" />
<glyph unicode="&#xd9;" horiz-adv-x="696" d="M326 -10Q236 -10 175 25T91 128T90 288L177 660H285L195 268Q181 207 195 166T246 104T334 83Q407 83 448 128T507 251L602 660H709L611 233Q584 121 514 56T326 -10ZM457 881L495 721H421L356 881H457Z" />
<glyph unicode="&#xda;" horiz-adv-x="696" d="M326 -10Q236 -10 175 25T91 128T90 288L177 660H285L195 268Q181 207 195 166T246 104T334 83Q407 83 448 128T507 251L602 660H709L611 233Q584 121 514 56T326 -10ZM491 881H604L481 721H395L491 881Z" />
<glyph unicode="&#xdb;" horiz-adv-x="696" d="M326 -10Q236 -10 175 25T91 128T90 288L177 660H285L195 268Q181 207 195 166T246 104T334 83Q407 83 448 128T507 251L602 660H709L611 233Q584 121 514 56T326 -10ZM543 881L613 721H531L478 823L380 721H287L432
881H543Z" />
<glyph unicode="&#xdc;" horiz-adv-x="696" d="M326 -10Q236 -10 175 25T91 128T90 288L177 660H285L195 268Q181 207 195 166T246 104T334 83Q407 83 448 128T507 251L602 660H709L611 233Q584 121 514 56T326 -10ZM558 718Q532 718 516 732T499 771Q499 806
519 825T571 844Q597 844 613 830T630 791Q630 755 610 737T558 718ZM356 718Q330 718 314 732T297 771Q297 806 317 825T369 844Q395 844 411 830T427 791Q427 755 407 737T356 718Z" />
<glyph unicode="&#xdd;" horiz-adv-x="589" d="M183 0L242 254L109 660H219L285 445L312 344L386 450L548 660H670L348 246L290 0H183ZM429 881H542L419 721H333L429 881Z" />
<glyph unicode="&#xde;" horiz-adv-x="630" d="M134 127L154 218H350Q400 218 432 237T480 289T496 357Q496 401 464 427T371 453H206L229 544H381Q486 544 545 494T604 359Q604 292 572 239T482 157T346 127H134ZM37 0L190 660H298L145 0H37Z" />
<glyph unicode="&#xdf;" horiz-adv-x="608" d="M333 -10Q292 -10 258 -1T202 22L233 106Q249 94 274 86T329 78Q370 78 397 98T439 150T453 217Q453 270 419 302T320 335Q313 335 307 335T294 334L316 419Q326 418 334 418T351 417Q399 417 431 434T479 480T495
547Q495 578 482 598T445 629T390 640Q333 640 297 606T241 486L129 0H22L141 516Q167 626 233 678T399 730Q463 730 507 709T575 651T599 564Q599 512 576 469T513 401T423 374V372Q456 369 486 350T534 298T553 218Q553 149 525 98T447 18T333 -10Z" />
<glyph unicode="&#xe0;" horiz-adv-x="617" d="M237 -8Q182 -8 139 18T72 93T48 206Q48 267 66 322T118 419T198 486T300 510Q341 510 374 496T431 455T462 389L488 500H595L479 0H384L401 93Q376 47 333 20T237 -8ZM274 77Q306 77 334 94T384 141T418 210T431
293Q431 333 417 362T377 408T316 424Q279 424 250 407T199 361T165 293T153 212Q153 169 167 139T208 93T274 77ZM355 746L396 578H318L252 746H355Z" />
<glyph unicode="&#xe1;" horiz-adv-x="617" d="M237 -8Q182 -8 139 18T72 93T48 206Q48 267 66 322T118 419T198 486T300 510Q341 510 374 496T431 455T462 389L488 500H595L479 0H384L401 93Q376 47 333 20T237 -8ZM274 77Q306 77 334 94T384 141T418 210T431
293Q431 333 417 362T377 408T316 424Q279 424 250 407T199 361T165 293T153 212Q153 169 167 139T208 93T274 77ZM408 746H524L380 578H290L408 746Z" />
<glyph unicode="&#xe2;" horiz-adv-x="617" d="M237 -8Q182 -8 139 18T72 93T48 206Q48 267 66 322T118 419T198 486T300 510Q341 510 374 496T431 455T462 389L488 500H595L479 0H384L401 93Q376 47 333 20T237 -8ZM274 77Q306 77 334 94T384 141T418 210T431
293Q431 333 417 362T377 408T316 424Q279 424 250 407T199 361T165 293T153 212Q153 169 167 139T208 93T274 77ZM178 571L329 740H441L515 571H432L375 677L271 571H178Z" />
<glyph unicode="&#xe3;" horiz-adv-x="617" d="M237 -8Q182 -8 139 18T72 93T48 206Q48 267 66 322T118 419T198 486T300 510Q341 510 374 496T431 455T462 389L488 500H595L479 0H384L401 93Q376 47 333 20T237 -8ZM274 77Q306 77 334 94T384 141T418 210T431
293Q431 333 417 362T377 408T316 424Q279 424 250 407T199 361T165 293T153 212Q153 169 167 139T208 93T274 77ZM554 717Q543 648 507 612T425 576Q399 576 381 586T350 609T324 632T297 642Q280 642 267 624T246 575H173Q185 645 220 681T302 717Q327 717 345
707T376 684T402 661T430 651Q447 651 460 669T482 717H554Z" />
<glyph unicode="&#xe4;" horiz-adv-x="617" d="M237 -8Q182 -8 139 18T72 93T48 206Q48 267 66 322T118 419T198 486T300 510Q341 510 374 496T431 455T462 389L488 500H595L479 0H384L401 93Q376 47 333 20T237 -8ZM274 77Q306 77 334 94T384 141T418 210T431
293Q431 333 417 362T377 408T316 424Q279 424 250 407T199 361T165 293T153 212Q153 169 167 139T208 93T274 77ZM458 574Q432 574 416 588T399 627Q399 662 419 681T471 700Q497 700 513 686T530 647Q530 611 510 593T458 574ZM256 574Q230 574 214 588T197 627Q197
662 217 681T269 700Q295 700 311 686T327 647Q327 611 307 593T256 574Z" />
<glyph unicode="&#xe5;" horiz-adv-x="617" d="M237 -8Q182 -8 139 18T72 93T48 206Q48 267 66 322T118 419T198 486T300 510Q341 510 374 496T431 455T462 389L488 500H595L479 0H384L401 93Q376 47 333 20T237 -8ZM274 77Q306 77 334 94T384 141T418 210T431
293Q431 333 417 362T377 408T316 424Q279 424 250 407T199 361T165 293T153 212Q153 169 167 139T208 93T274 77ZM376 810Q430 810 464 779T498 700Q498 643 460 606T365 569Q311 569 277 600T243 678Q243 735 280 772T376 810ZM374 753Q346 753 327 735T307 684Q307
659 324 643T368 626Q395 626 414 644T433 695Q433 720 417 736T374 753Z" />
<glyph unicode="&#xe6;" horiz-adv-x="883" d="M200 -10Q117 -10 76 30T34 129Q34 175 57 205T121 252T213 276L402 301L396 229L252 209Q200 202 169 188T138 136Q138 106 158 89T218 72Q275 72 309 102T355 187L382 306Q384 315 385 323T386 338Q386 377 360
401T287 426Q237 426 205 405T152 338L69 378Q97 440 153 474T294 509Q340 509 375 494T431 454T455 399L437 405Q458 437 488 460T558 496T646 509Q704 509 746 484T811 414T834 312Q834 290 831 267T821 219H455L464 301H730Q731 305 731 309T731 318Q731 351
719 375T685 412T635 425Q589 425 557 406T506 355T479 285T470 208Q470 168 486 138T530 91T597 75Q641 75 670 94T719 146L805 100Q784 66 752 42T680 4T592 -9Q535 -9 490 13T420 71T393 151L415 157Q410 115 382 77T308 14T200 -10Z" />
<glyph unicode="&#xe7;" horiz-adv-x="545" d="M280 -9Q208 -9 157 21T78 102T50 217Q50 302 83 367T177 471T320 509Q380 509 425 489T498 431T532 347L425 325Q423 367 397 396T316 425Q281 425 252 409T202 364T169 297T157 214Q157 174 172 143T215 93T286
75Q321 75 352 94T396 151L496 116Q469 56 412 24T280 -9ZM195 7L241 30Q288 13 313 -16T339 -87Q339 -128 321 -156T272 -200T205 -215Q170 -215 142 -202T100 -171L135 -114Q149 -129 167 -136T205 -143Q233 -143 250 -125T268 -80Q268 -51 250 -31T195 7Z" />
<glyph unicode="&#xe8;" horiz-adv-x="575" d="M278 -9Q207 -9 156 20T77 101T49 216Q49 296 81 362T174 469T321 509Q385 509 431 483T501 411T525 302Q525 282 523 261T513 219H110V301H455L416 273Q420 285 421 296T422 318Q422 351 410 375T373 412T316 425Q271
425 240 407T189 357T162 287T154 212Q154 170 170 140T216 92T286 75Q333 75 362 95T410 146L496 100Q476 66 444 42T370 4T278 -9ZM344 746L385 578H307L241 746H344Z" />
<glyph unicode="&#xe9;" horiz-adv-x="575" d="M278 -9Q207 -9 156 20T77 101T49 216Q49 296 81 362T174 469T321 509Q385 509 431 483T501 411T525 302Q525 282 523 261T513 219H110V301H455L416 273Q420 285 421 296T422 318Q422 351 410 375T373 412T316 425Q271
425 240 407T189 357T162 287T154 212Q154 170 170 140T216 92T286 75Q333 75 362 95T410 146L496 100Q476 66 444 42T370 4T278 -9ZM397 746H513L369 578H279L397 746Z" />
<glyph unicode="&#xea;" horiz-adv-x="575" d="M278 -9Q207 -9 156 20T77 101T49 216Q49 296 81 362T174 469T321 509Q385 509 431 483T501 411T525 302Q525 282 523 261T513 219H110V301H455L416 273Q420 285 421 296T422 318Q422 351 410 375T373 412T316 425Q271
425 240 407T189 357T162 287T154 212Q154 170 170 140T216 92T286 75Q333 75 362 95T410 146L496 100Q476 66 444 42T370 4T278 -9ZM167 571L318 740H430L504 571H421L364 677L260 571H167Z" />
<glyph unicode="&#xeb;" horiz-adv-x="575" d="M278 -9Q207 -9 156 20T77 101T49 216Q49 296 81 362T174 469T321 509Q385 509 431 483T501 411T525 302Q525 282 523 261T513 219H110V301H455L416 273Q420 285 421 296T422 318Q422 351 410 375T373 412T316 425Q271
425 240 407T189 357T162 287T154 212Q154 170 170 140T216 92T286 75Q333 75 362 95T410 146L496 100Q476 66 444 42T370 4T278 -9ZM447 574Q421 574 405 588T388 627Q388 662 408 681T460 700Q486 700 502 686T519 647Q519 611 499 593T447 574ZM245 574Q219
574 203 588T186 627Q186 662 206 681T258 700Q284 700 300 686T316 647Q316 611 296 593T245 574Z" />
<glyph unicode="&#xec;" horiz-adv-x="267" d="M245 500L129 0H22L138 500H245ZM212 746L253 578H175L109 746H212Z" />
<glyph unicode="&#xed;" horiz-adv-x="267" d="M245 500L129 0H22L138 500H245ZM265 746H381L237 578H147L265 746Z" />
<glyph unicode="&#xee;" horiz-adv-x="267" d="M245 500L129 0H22L138 500H245ZM35 571L186 740H298L372 571H289L232 677L128 571H35Z" />
<glyph unicode="&#xef;" horiz-adv-x="267" d="M307 574Q281 574 265 588T249 627Q249 662 269 681T321 700Q347 700 363 686T379 647Q379 611 359 593T307 574ZM121 574Q95 574 79 588T63 627Q63 662 83 681T135 700Q161 700 177 686T193 647Q193 611 173 593T121
574ZM245 500L129 0H22L138 500H245Z" />
<glyph unicode="&#xf0;" horiz-adv-x="598" d="M269 -10Q200 -10 151 19T74 100T47 216Q47 294 80 356T169 454T297 490Q349 490 387 473T446 424T469 349L454 344Q455 356 455 366T456 388Q456 457 436 518T371 631T257 728H368Q414 706 448 668T505 583T539
482T551 375Q551 296 533 226T480 104T392 21T269 -10ZM282 75Q318 75 346 92T394 139T424 203T435 277Q435 321 418 349T372 392T306 407Q271 407 243 390T194 344T164 281T153 211Q153 171 169 141T214 93T282 75ZM252 538L240 595L422 633L456 585L252 538ZM469
587L438 635L600 674L615 618L469 587Z" />
<glyph unicode="&#xf1;" horiz-adv-x="603" d="M22 0L138 500H232L211 374L201 381Q222 445 275 477T392 510Q448 510 487 486T542 416T543 305L472 0H365L435 300Q448 357 424 389T348 422Q308 422 277 404T224 352T190 265L129 0H22ZM581 717Q570 648 534 612T452
576Q426 576 408 586T377 609T351 632T324 642Q307 642 294 624T273 575H200Q212 645 247 681T329 717Q354 717 372 707T403 684T429 661T457 651Q474 651 487 669T509 717H581Z" />
<glyph unicode="&#xf2;" horiz-adv-x="596" d="M282 -9Q208 -9 157 21T77 102T49 216Q49 301 82 367T175 471T316 509Q390 509 441 479T520 398T547 284Q547 201 515 135T422 30T282 -9ZM284 75Q317 75 345 91T395 136T428 203T440 286Q440 326 427 357T385 406T313
425Q280 425 251 409T201 365T168 298T156 214Q156 176 170 144T212 94T284 75ZM350 746L391 578H313L247 746H350Z" />
<glyph unicode="&#xf3;" horiz-adv-x="596" d="M282 -9Q208 -9 157 21T77 102T49 216Q49 301 82 367T175 471T316 509Q390 509 441 479T520 398T547 284Q547 201 515 135T422 30T282 -9ZM284 75Q317 75 345 91T395 136T428 203T440 286Q440 326 427 357T385 406T313
425Q280 425 251 409T201 365T168 298T156 214Q156 176 170 144T212 94T284 75ZM403 746H519L375 578H285L403 746Z" />
<glyph unicode="&#xf4;" horiz-adv-x="596" d="M282 -9Q208 -9 157 21T77 102T49 216Q49 301 82 367T175 471T316 509Q390 509 441 479T520 398T547 284Q547 201 515 135T422 30T282 -9ZM284 75Q317 75 345 91T395 136T428 203T440 286Q440 326 427 357T385 406T313
425Q280 425 251 409T201 365T168 298T156 214Q156 176 170 144T212 94T284 75ZM173 571L324 740H436L510 571H427L370 677L266 571H173Z" />
<glyph unicode="&#xf5;" horiz-adv-x="596" d="M282 -9Q208 -9 157 21T77 102T49 216Q49 301 82 367T175 471T316 509Q390 509 441 479T520 398T547 284Q547 201 515 135T422 30T282 -9ZM284 75Q317 75 345 91T395 136T428 203T440 286Q440 326 427 357T385 406T313
425Q280 425 251 409T201 365T168 298T156 214Q156 176 170 144T212 94T284 75ZM549 717Q538 648 502 612T420 576Q394 576 376 586T345 609T319 632T292 642Q275 642 262 624T241 575H168Q180 645 215 681T297 717Q322 717 340 707T371 684T397 661T425 651Q442
651 455 669T477 717H549Z" />
<glyph unicode="&#xf6;" horiz-adv-x="596" d="M282 -9Q208 -9 157 21T77 102T49 216Q49 301 82 367T175 471T316 509Q390 509 441 479T520 398T547 284Q547 201 515 135T422 30T282 -9ZM284 75Q317 75 345 91T395 136T428 203T440 286Q440 326 427 357T385 406T313
425Q280 425 251 409T201 365T168 298T156 214Q156 176 170 144T212 94T284 75ZM453 574Q427 574 411 588T394 627Q394 662 414 681T466 700Q492 700 508 686T525 647Q525 611 505 593T453 574ZM251 574Q225 574 209 588T192 627Q192 662 212 681T264 700Q290 700
306 686T322 647Q322 611 302 593T251 574Z" />
<glyph unicode="&#xf7;" horiz-adv-x="610" d="M577 364L556 275H65L85 364H577ZM269 47Q241 47 223 63T205 107Q205 144 226 165T279 187Q307 187 325 171T343 127Q343 90 323 69T269 47ZM362 450Q334 450 316 466T298 510Q298 546 319 567T372 589Q400 589 418
573T436 530Q436 493 415 472T362 450Z" />
<glyph unicode="&#xf8;" horiz-adv-x="596" d="M282 -9Q208 -9 157 21T77 102T49 216Q49 301 82 367T175 471T316 509Q390 509 441 479T520 398T547 284Q547 201 515 135T422 30T282 -9ZM284 75Q317 75 345 91T395 136T428 203T440 286Q440 326 427 357T385 406T313
425Q280 425 251 409T201 365T168 298T156 214Q156 176 170 144T212 94T284 75ZM6 -25L515 526H587L79 -25H6Z" />
<glyph unicode="&#xf9;" horiz-adv-x="602" d="M215 -8Q161 -8 121 16T63 85T60 194L131 500H238L169 203Q155 143 180 112T257 80Q297 80 327 97T379 149T411 235L473 500H580L464 0H369L390 126L400 118Q380 55 330 24T215 -8ZM367 738L408 570H330L264 738H367Z" />
<glyph unicode="&#xfa;" horiz-adv-x="602" d="M215 -8Q161 -8 121 16T63 85T60 194L131 500H238L169 203Q155 143 180 112T257 80Q297 80 327 97T379 149T411 235L473 500H580L464 0H369L390 126L400 118Q380 55 330 24T215 -8ZM420 738H536L392 570H302L420 738Z" />
<glyph unicode="&#xfb;" horiz-adv-x="602" d="M215 -8Q161 -8 121 16T63 85T60 194L131 500H238L169 203Q155 143 180 112T257 80Q297 80 327 97T379 149T411 235L473 500H580L464 0H369L390 126L400 118Q380 55 330 24T215 -8ZM190 563L341 732H453L527 563H444L387
669L283 563H190Z" />
<glyph unicode="&#xfc;" horiz-adv-x="602" d="M215 -8Q161 -8 121 16T63 85T60 194L131 500H238L169 203Q155 143 180 112T257 80Q297 80 327 97T379 149T411 235L473 500H580L464 0H369L390 126L400 118Q380 55 330 24T215 -8ZM470 566Q444 566 428 580T411
619Q411 654 431 673T483 692Q509 692 525 678T542 639Q542 603 522 585T470 566ZM268 566Q242 566 226 580T209 619Q209 654 229 673T281 692Q307 692 323 678T339 639Q339 603 319 585T268 566Z" />
<glyph unicode="&#xfd;" horiz-adv-x="520" d="M22 -215Q-18 -215 -48 -206T-97 -181L-60 -98Q-26 -129 19 -129Q49 -129 72 -113T118 -63L157 0L69 500H176L212 219L228 95L294 213L457 500H575L214 -81Q185 -129 155 -158T91 -201T22 -215ZM390 738H506L362
570H272L390 738Z" />
<glyph unicode="&#xfe;" horiz-adv-x="617" d="M-26 -210L190 725H297L216 377L200 356Q217 427 268 467T392 508Q441 508 481 483T545 411T569 296Q569 233 550 178T497 80T418 14T318 -10Q271 -10 234 8T174 61T149 146L166 162L81 -210H-26ZM304 76Q337 76
366 92T417 139T451 207T463 290Q463 333 449 362T408 407T346 423Q310 423 281 406T231 360T198 290T186 205Q186 147 216 112T304 76Z" />
<glyph unicode="&#xff;" horiz-adv-x="520" d="M22 -215Q-18 -215 -48 -206T-97 -181L-60 -98Q-26 -129 19 -129Q49 -129 72 -113T118 -63L157 0L69 500H176L212 219L228 95L294 213L457 500H575L214 -81Q185 -129 155 -158T91 -201T22 -215ZM440 566Q414 566
398 580T381 619Q381 654 401 673T453 692Q479 692 495 678T512 639Q512 603 492 585T440 566ZM238 566Q212 566 196 580T179 619Q179 654 199 673T251 692Q277 692 293 678T309 639Q309 603 289 585T238 566Z" />
<glyph unicode="&#x2013;" horiz-adv-x="672" d="M605 310L584 217H73L94 310H605Z" />
<glyph unicode="&#x2014;" horiz-adv-x="1011" d="M944 310L923 217H73L94 310H944Z" />
<glyph unicode="&#x2018;" horiz-adv-x="254" d="M179 411Q144 411 123 434T101 494Q101 540 126 583T192 657T283 697L309 644Q270 640 243 624T199 587T175 550L177 548Q180 549 186 550T200 552Q228 552 243 535T258 493Q258 457 236 434T179 411Z" />
<glyph unicode="&#x2019;" horiz-adv-x="254" d="M223 696Q259 696 279 672T299 610Q299 568 278 526T216 453T120 409L91 462Q130 469 157 483T202 517T228 560L226 562Q221 558 216 557T199 555Q173 555 158 574T143 617Q143 653 166 674T223 696Z" />
<glyph unicode="&#x201a;" horiz-adv-x="254" d="M350 135Q386 135 406 111T426 49Q426 7 405 -35T343 -108T247 -152L218 -99Q257 -92 284 -78T329 -44T355 -1L353 1Q348 -3 343 -4T326 -6Q300 -6 285 13T270 56Q270 92 293 113T350 135Z" />
<glyph unicode="&#x201c;" horiz-adv-x="455" d="M179 411Q144 411 123 434T101 494Q101 540 126 583T192 657T283 697L309 644Q270 640 243 624T199 587T175 550L177 548Q180 549 186 550T200 552Q228 552 243 535T258 493Q258 457 236 434T179 411ZM380 411Q345
411 324 434T302 494Q302 540 327 583T393 657T484 697L510 644Q471 640 444 624T400 587T376 550L378 548Q381 549 387 550T401 552Q429 552 444 535T459 493Q459 457 437 434T380 411Z" />
<glyph unicode="&#x201d;" horiz-adv-x="455" d="M223 696Q259 696 279 672T299 610Q299 568 278 526T216 453T120 409L91 462Q130 469 157 483T202 517T228 560L226 562Q221 558 216 557T199 555Q173 555 158 574T143 617Q143 653 166 674T223 696ZM424 696Q460
696 480 672T500 610Q500 568 479 526T417 453T321 409L292 462Q331 469 358 483T403 517T429 560L427 562Q422 558 417 557T400 555Q374 555 359 574T344 617Q344 653 367 674T424 696Z" />
<glyph unicode="&#x201e;" horiz-adv-x="455" d="M350 135Q386 135 406 111T426 49Q426 7 405 -35T343 -108T247 -152L218 -99Q257 -92 284 -78T329 -44T355 -1L353 1Q348 -3 343 -4T326 -6Q300 -6 285 13T270 56Q270 92 293 113T350 135ZM294 135Q330 135 350
111T370 49Q370 7 349 -35T287 -108T191 -152L162 -99Q201 -92 228 -78T273 -44T299 -1L297 1Q292 -3 287 -4T270 -6Q244 -6 229 13T214 56Q214 92 237 113T294 135Z" />
<glyph unicode="&#x2022;" horiz-adv-x="423" d="M224 206Q168 206 134 240T100 323Q100 387 139 426T239 465Q296 465 329 431T363 348Q363 284 325 245T224 206Z" />
<glyph unicode="&#x2039;" horiz-adv-x="322" d="M325 461L127 235L131 304L226 69H128L48 265L219 461H325Z" />
<glyph unicode="&#x203a;" horiz-adv-x="322" d="M4 69L199 293L198 225L103 461H199L281 265L110 69H4Z" />
</font>
</defs>
</svg>
