<?xml version="1.0" encoding="UTF-8" standalone="no"?>
<svg
   xmlns:dc="http://purl.org/dc/elements/1.1/"
   xmlns:cc="http://creativecommons.org/ns#"
   xmlns:rdf="http://www.w3.org/1999/02/22-rdf-syntax-ns#"
   xmlns:svg="http://www.w3.org/2000/svg"
   xmlns="http://www.w3.org/2000/svg"
   xmlns:sodipodi="http://sodipodi.sourceforge.net/DTD/sodipodi-0.dtd"
   xmlns:inkscape="http://www.inkscape.org/namespaces/inkscape"
   viewBox="0 0 24 24"
   x="0px"
   y="0px"
   version="1.1"
   id="svg977"
   width="24"
   height="24"
   sodipodi:docname="home.svg"
   inkscape:version="1.0.1 (0767f8302a, 2020-10-17)">
  <sodipodi:namedview
     pagecolor="#ffffff"
     bordercolor="#666666"
     borderopacity="1"
     objecttolerance="10"
     gridtolerance="10"
     guidetolerance="10"
     inkscape:pageopacity="0"
     inkscape:pageshadow="2"
     inkscape:window-width="1920"
     inkscape:window-height="1016"
     id="namedview2283"
     showgrid="false"
     inkscape:zoom="12.772116"
     inkscape:cx="18.989306"
     inkscape:cy="20.483045"
     inkscape:window-x="0"
     inkscape:window-y="27"
     inkscape:window-maximized="1"
     inkscape:current-layer="svg977" />
  <metadata
     id="metadata983">
    <rdf:RDF>
      <cc:Work
         rdf:about="">
        <dc:format>image/svg+xml</dc:format>
        <dc:type
           rdf:resource="http://purl.org/dc/dcmitype/StillImage" />
        <dc:title>Asset 73</dc:title>
      </cc:Work>
    </rdf:RDF>
  </metadata>
  <defs
     id="defs981" />
  <title
     id="title965">Asset 73</title>
  <path
     d="M 23.234196,12.370044 20.613153,9.7490017 v 0 L 12.643767,1.7796162 a 0.88548728,0.88548728 0 0 0 -1.257391,0 L 3.4169905,9.7490017 v 0 L 0.72510913,12.440883 a 0.88548728,0.88548728 0 0 0 0.61984107,1.469908 0.88548728,0.88548728 0 0 0 0.6198412,-0.247936 l 1.1865529,-1.186553 v 9.120519 a 0.88548728,0.88548728 0 0 0 0.8854872,0.885488 H 19.975602 a 0.88548728,0.88548728 0 0 0 0.885487,-0.885488 v -9.085099 l 1.133424,1.115714 a 0.85006778,0.85006778 0 0 0 1.239683,0 0.88548728,0.88548728 0 0 0 0,-1.257392 z m -4.144081,8.376709 H 4.9223188 V 10.740748 l 7.0838972,-7.0838988 7.083899,7.0838988 z"
     id="path967"
     style="stroke:none;stroke-width:1.77098" />
</svg>
