<?xml version="1.0" encoding="UTF-8" standalone="no"?>
<svg
   xmlns="http://www.w3.org/2000/svg"
   version="1.1"
   viewBox="0 0 24 24"
   width="24"
   height="24"
   >
    <path
       style="color:#000000;font-style:normal;font-variant:normal;font-weight:normal;font-stretch:normal;font-size:medium;line-height:normal;font-family:sans-serif;font-variant-ligatures:normal;font-variant-position:normal;font-variant-caps:normal;font-variant-numeric:normal;font-variant-alternates:normal;font-variant-east-asian:normal;font-feature-settings:normal;font-variation-settings:normal;text-indent:0;text-align:start;text-decoration:none;text-decoration-line:none;text-decoration-style:solid;text-decoration-color:#000000;letter-spacing:normal;word-spacing:normal;text-transform:none;writing-mode:lr-tb;direction:ltr;text-orientation:mixed;dominant-baseline:auto;baseline-shift:baseline;text-anchor:start;white-space:normal;shape-padding:0;shape-margin:0;inline-size:0;clip-rule:nonzero;display:inline;overflow:visible;visibility:visible;isolation:auto;mix-blend-mode:normal;color-interpolation:sRGB;color-interpolation-filters:linearRGB;solid-color:#000000;solid-opacity:1;vector-effect:none;fill:#000000;fill-opacity:1;fill-rule:nonzero;stroke-width:0.0219609;stroke-linecap:butt;stroke-linejoin:miter;stroke-miterlimit:4;stroke-dasharray:none;stroke-dashoffset:0;stroke-opacity:1.0;color-rendering:auto;image-rendering:auto;shape-rendering:auto;text-rendering:auto;enable-background:accumulate;stop-color:#000000;stop-opacity:1;stroke:none;"
       d="M 21.906968,11.767215 C 21.509476,11.369722 21.109788,10.970034 20.7101,10.572542 L 18.806091,8.668533 18.371265,8.2337074 C 18.169225,8.0316672 17.809066,8.1810012 17.809066,8.4664928 V 11.12376 H 8.8841606 c -0.5094927,0 -1.0189853,-0.0066 -1.5262819,0 h -0.021961 c -0.4589826,0 -0.9003965,0.404081 -0.8784356,0.878436 0.021961,0.476551 0.3865117,0.878436 0.8784356,0.878436 H 17.811262 v 2.657267 c 0,0.03294 0.0044,0.06369 0.01537,0.09443 0,0.0022 0,0.0044 0.0022,0.0066 0.02416,0.07028 0.07027,0.131766 0.129569,0.173492 h 0.0022 c 0.06588,0.04172 0.147138,0.05929 0.224001,0.05051 0.07027,-0.0088 0.138354,-0.03953 0.19106,-0.09224 0.397492,-0.399688 0.797181,-0.79718 1.194673,-1.194673 l 1.904009,-1.904009 0.434825,-0.434825 c 0.125178,-0.12957 0.125178,-0.344786 -0.0022,-0.469963 z"
       id="path1079" />
    <path
       style="color:#000000;font-style:normal;font-variant:normal;font-weight:normal;font-stretch:normal;font-size:medium;line-height:normal;font-family:sans-serif;font-variant-ligatures:normal;font-variant-position:normal;font-variant-caps:normal;font-variant-numeric:normal;font-variant-alternates:normal;font-variant-east-asian:normal;font-feature-settings:normal;font-variation-settings:normal;text-indent:0;text-align:start;text-decoration:none;text-decoration-line:none;text-decoration-style:solid;text-decoration-color:#000000;letter-spacing:normal;word-spacing:normal;text-transform:none;writing-mode:lr-tb;direction:ltr;text-orientation:mixed;dominant-baseline:auto;baseline-shift:baseline;text-anchor:start;white-space:normal;shape-padding:0;shape-margin:0;inline-size:0;clip-rule:nonzero;display:inline;overflow:visible;visibility:visible;isolation:auto;mix-blend-mode:normal;color-interpolation:sRGB;color-interpolation-filters:linearRGB;solid-color:#000000;solid-opacity:1;vector-effect:none;fill-opacity:1;fill-rule:nonzero;stroke-width:0.0219609;stroke-linecap:butt;stroke-linejoin:miter;stroke-miterlimit:4;stroke-dasharray:none;stroke-dashoffset:0;stroke-opacity:1.0;color-rendering:auto;image-rendering:auto;shape-rendering:auto;text-rendering:auto;enable-background:accumulate;stop-color:#000000;stop-opacity:1;stroke:none;"
       d="M 18.382812 8.2226562 C 18.171262 8.011106 17.792969 8.1678489 17.792969 8.4667969 L 17.792969 11.107422 L 8.8847656 11.107422 C 8.3754111 11.107422 7.8649966 11.100818 7.3574219 11.107422 L 7.3359375 11.107422 C 6.8675641 11.107422 6.4189679 11.519238 6.4414062 12.003906 C 6.463723 12.488178 6.8352993 12.896484 7.3359375 12.896484 L 17.794922 12.896484 L 17.794922 15.537109 C 17.794922 15.569438 17.80036 15.602079 17.810547 15.632812 C 17.811188 15.634748 17.81181 15.636738 17.8125 15.638672 L 17.810547 15.634766 C 17.810623 15.635978 17.810409 15.638122 17.810547 15.638672 C 17.810822 15.639772 17.817259 15.649291 17.818359 15.650391 C 17.844202 15.721018 17.888995 15.783795 17.949219 15.826172 L 17.951172 15.826172 L 17.953125 15.828125 L 17.958984 15.828125 C 18.026836 15.868815 18.107728 15.887795 18.185547 15.878906 L 18.1875 15.878906 C 18.261063 15.869694 18.33134 15.836633 18.386719 15.78125 C 18.784169 15.381604 19.184518 14.985404 19.582031 14.587891 L 21.486328 12.683594 L 21.919922 12.248047 C 22.051251 12.11211 22.051886 11.887463 21.917969 11.755859 C 21.520477 11.358366 21.120412 10.95806 20.720703 10.560547 L 18.818359 8.65625 L 18.382812 8.2226562 z M 18.359375 8.2441406 L 18.794922 8.6796875 L 20.699219 10.583984 C 21.098886 10.981456 21.498992 11.381804 21.896484 11.779297 C 22.017323 11.898048 22.017464 12.10336 21.898438 12.226562 L 21.462891 12.660156 L 19.558594 14.564453 C 19.161123 14.961925 18.762768 15.360036 18.365234 15.759766 C 18.315634 15.80937 18.249952 15.838983 18.183594 15.847656 C 18.110385 15.856019 18.031321 15.838453 17.96875 15.798828 L 17.966797 15.798828 C 17.966051 15.798303 17.965586 15.797407 17.964844 15.796875 C 17.909471 15.757188 17.866503 15.699 17.84375 15.632812 L 17.841797 15.632812 L 17.841797 15.630859 C 17.841907 15.631299 17.842389 15.629893 17.841797 15.628906 L 17.841797 15.626953 C 17.831507 15.598119 17.828125 15.568625 17.828125 15.537109 L 17.828125 12.865234 L 7.3359375 12.865234 C 6.8527279 12.865234 6.4942615 12.470784 6.4726562 12.001953 C 6.4511728 11.537912 6.8863457 11.140625 7.3359375 11.140625 L 7.3574219 11.140625 C 7.8644404 11.134029 8.3751347 11.140625 8.8847656 11.140625 L 17.824219 11.140625 L 17.824219 8.4667969 C 17.824219 8.1947617 18.166845 8.0516105 18.359375 8.2441406 z "
    />
    <path
       style="color:#000000;font-style:normal;font-variant:normal;font-weight:normal;font-stretch:normal;font-size:medium;line-height:normal;font-family:sans-serif;font-variant-ligatures:normal;font-variant-position:normal;font-variant-caps:normal;font-variant-numeric:normal;font-variant-alternates:normal;font-variant-east-asian:normal;font-feature-settings:normal;font-variation-settings:normal;text-indent:0;text-align:start;text-decoration:none;text-decoration-line:none;text-decoration-style:solid;text-decoration-color:#000000;letter-spacing:normal;word-spacing:normal;text-transform:none;writing-mode:lr-tb;direction:ltr;text-orientation:mixed;dominant-baseline:auto;baseline-shift:baseline;text-anchor:start;white-space:normal;shape-padding:0;shape-margin:0;inline-size:0;clip-rule:nonzero;display:inline;overflow:visible;visibility:visible;isolation:auto;mix-blend-mode:normal;color-interpolation:sRGB;color-interpolation-filters:linearRGB;solid-color:#000000;solid-opacity:1;vector-effect:none;fill:#000000;fill-opacity:1;fill-rule:nonzero;stroke-width:0.0219609;stroke-linecap:butt;stroke-linejoin:miter;stroke-miterlimit:4;stroke-dasharray:none;stroke-dashoffset:0;stroke-opacity:1.0;color-rendering:auto;image-rendering:auto;shape-rendering:auto;text-rendering:auto;enable-background:accumulate;stop-color:#000000;stop-opacity:1;stroke:none;"
       d="m 16.227882,17.925048 v -0.885024 c 0,-0.458982 -0.40408,-0.900396 -0.878435,-0.878435 -0.476552,0.02196 -0.878436,0.386511 -0.878436,0.878435 v 3.131623 c 0,0.0571 0.0022,0.114197 0.0022,0.173491 h -0.05051 -9.5464028 c -0.3755313,0 -0.7510625,0.0022 -1.1265937,0.0022 0.0022,-0.07027 0.00439,-0.140549 0.00439,-0.208628 V 4.0984718 3.6548618 h 0.048314 9.5485955 c 0.373335,0 0.748866,-0.0022 1.122201,-0.0022 v 0.09004 3.2150743 c 0,0.4589826 0.40408,0.9003964 0.878436,0.8784356 C 15.828192,7.8142507 16.230076,7.4497 16.230076,6.9577761 V 4.2873354 c 0,-0.3557664 0.02635,-0.7203172 -0.02196,-1.0716914 -0.10102,-0.7554546 -0.74667,-1.3022808 -1.502124,-1.3176534 H 14.600579 3.7584889 c -0.3711391,0 -0.740082,0.021961 -1.060711,0.2437659 C 2.2629522,2.4448168 2.0060098,2.895015 1.9972255,3.4308607 v 0.1054123 16.938434 0.09663 c 0.00878,0.549023 0.296472,1.071692 0.7840037,1.337419 0.320629,0.175687 0.6500424,0.193255 0.9970245,0.193255 h 10.8311113 0.09223 c 0.841102,-0.01757 1.506517,-0.685179 1.524086,-1.524085 0.01976,-0.885024 0.0022,-1.770048 0.0022,-2.652876 z"
    />
    <path
       style="color:#000000;font-style:normal;font-variant:normal;font-weight:normal;font-stretch:normal;font-size:medium;line-height:normal;font-family:sans-serif;font-variant-ligatures:normal;font-variant-position:normal;font-variant-caps:normal;font-variant-numeric:normal;font-variant-alternates:normal;font-variant-east-asian:normal;font-feature-settings:normal;font-variation-settings:normal;text-indent:0;text-align:start;text-decoration:none;text-decoration-line:none;text-decoration-style:solid;text-decoration-color:#000000;letter-spacing:normal;word-spacing:normal;text-transform:none;writing-mode:lr-tb;direction:ltr;text-orientation:mixed;dominant-baseline:auto;baseline-shift:baseline;text-anchor:start;white-space:normal;shape-padding:0;shape-margin:0;inline-size:0;clip-rule:nonzero;display:inline;overflow:visible;visibility:visible;isolation:auto;mix-blend-mode:normal;color-interpolation:sRGB;color-interpolation-filters:linearRGB;solid-color:#000000;solid-opacity:1;vector-effect:none;fill-opacity:1;fill-rule:nonzero;stroke-width:0.0219609;stroke-linecap:butt;stroke-linejoin:miter;stroke-miterlimit:4;stroke-dasharray:none;stroke-dashoffset:0;stroke-opacity:1.0;color-rendering:auto;image-rendering:auto;shape-rendering:auto;text-rendering:auto;enable-background:accumulate;stop-color:#000000;stop-opacity:1;stroke:none;"
       d="M 3.7578125 1.8828125 C 3.3860422 1.8828125 3.0143985 1.9041154 2.6894531 2.1289062 C 2.2509551 2.4345261 1.9893345 2.888876 1.9804688 3.4296875 L 1.9804688 3.4316406 L 1.9804688 3.5371094 L 1.9804688 20.474609 L 1.9804688 20.572266 C 1.9893355 21.126714 2.2804871 21.653195 2.7734375 21.921875 C 3.0977224 22.099565 3.4298216 22.117187 3.7773438 22.117188 L 14.609375 22.117188 L 14.701172 22.117188 C 15.550559 22.099444 16.224445 21.425309 16.242188 20.578125 C 16.261958 19.692652 16.244141 18.808397 16.244141 17.925781 L 16.244141 17.039062 C 16.244141 16.57069 15.834278 16.124046 15.349609 16.146484 C 14.865337 16.1688 14.455078 16.538424 14.455078 17.039062 L 14.455078 20.171875 C 14.455078 20.224217 14.456704 20.276754 14.457031 20.330078 L 14.421875 20.330078 L 4.8769531 20.330078 C 4.5065669 20.330078 4.1358896 20.331972 3.765625 20.332031 C 3.767649 20.267 3.7695313 20.20198 3.7695312 20.138672 L 3.7695312 4.0976562 L 3.7695312 3.6699219 L 3.8027344 3.6699219 L 13.351562 3.6699219 C 13.719756 3.6699219 14.0889 3.6680284 14.457031 3.6679688 L 14.457031 3.7421875 L 14.457031 6.9570312 C 14.457031 7.4254046 14.866893 7.8740008 15.351562 7.8515625 C 15.835834 7.8292457 16.246094 7.4576694 16.246094 6.9570312 L 16.246094 4.2871094 C 16.246094 3.932133 16.27323 3.566522 16.224609 3.2128906 C 16.122537 2.4495643 15.470016 1.8983383 14.707031 1.8828125 L 14.599609 1.8828125 L 3.7578125 1.8828125 z M 3.7578125 1.9140625 L 14.599609 1.9140625 L 14.705078 1.9140625 C 15.453001 1.9292819 16.091439 2.469214 16.191406 3.2167969 L 16.191406 3.21875 C 16.239406 3.5678671 16.214844 3.9305529 16.214844 4.2871094 L 16.214844 6.9570312 C 16.214844 7.4402409 15.820393 7.7987073 15.351562 7.8203125 C 14.88752 7.8417958 14.488281 7.4066231 14.488281 6.9570312 L 14.488281 3.7421875 L 14.488281 3.6367188 L 14.472656 3.6367188 C 14.099258 3.6367188 13.724835 3.6386719 13.351562 3.6386719 L 3.8027344 3.6386719 L 3.7382812 3.6386719 L 3.7382812 4.0976562 L 3.7382812 20.138672 C 3.7382812 20.206408 3.736575 20.277388 3.734375 20.347656 L 3.7324219 20.363281 L 3.75 20.363281 C 4.1255937 20.363281 4.5014843 20.361328 4.8769531 20.361328 L 14.421875 20.361328 L 14.488281 20.361328 L 14.488281 20.345703 C 14.488281 20.286013 14.486328 20.228564 14.486328 20.171875 L 14.486328 17.039062 C 14.486328 16.555853 14.880778 16.199339 15.349609 16.177734 C 15.813651 16.156251 16.210938 16.589471 16.210938 17.039062 L 16.210938 17.925781 C 16.210938 18.808821 16.228734 19.69355 16.208984 20.578125 C 16.191589 21.408753 15.533989 22.068541 14.701172 22.085938 L 14.609375 22.085938 L 3.7773438 22.085938 C 3.4309017 22.085937 3.1060356 22.068215 2.7890625 21.894531 C 2.3074791 21.632046 2.0229615 21.115209 2.0136719 20.572266 L 2.0136719 20.474609 L 2.0136719 3.5371094 L 2.0136719 3.4316406 C 2.0223748 2.9007608 2.2758779 2.4547977 2.7070312 2.1542969 C 3.0233439 1.935478 3.3873046 1.9140625 3.7578125 1.9140625 z "
    />
    </svg>
