<svg xmlns="http://www.w3.org/2000/svg" viewBox="0 0 13.01 14.825" x="0px" y="0px"><title>Asset 73</title><g data-name="Layer 2"><g data-name="Layer 1"><path d="M12.86,6.13,11.38,4.65h0L6.88.15a.5.5,0,0,0-.71,0l-4.5,4.5h0L.15,6.17A.5.5,0,0,0,.5,7a.5.5,0,0,0,.35-.14l.67-.67v5.15a.5.5,0,0,0,.5.5h9a.5.5,0,0,0,.5-.5V6.21l.64.63a.48.48,0,0,0,.7,0A.5.5,0,0,0,12.86,6.13Zm-2.34,4.73h-8V5.21l4-4,4,4Z"/></g></g><text x="0" y="26.86" fill="#000000" font-size="5px" font-weight="bold" font-family="'Helvetica Neue', Helvetica, Arial-Unicode, Arial, Sans-serif">Created by Sarah Klimkowski</text><text x="0" y="31.86" fill="#000000" font-size="5px" font-weight="bold" font-family="'Helvetica Neue', Helvetica, Arial-Unicode, Arial, Sans-serif">from the Noun Project</text></svg>