<svg xmlns:dc="http://purl.org/dc/elements/1.1/" xmlns:cc="http://creativecommons.org/ns#" xmlns:rdf="http://www.w3.org/1999/02/22-rdf-syntax-ns#" xmlns:svg="http://www.w3.org/2000/svg" xmlns="http://www.w3.org/2000/svg" xmlns:sodipodi="http://sodipodi.sourceforge.net/DTD/sodipodi-0.dtd" xmlns:inkscape="http://www.inkscape.org/namespaces/inkscape" version="1.1" x="0px" y="0px" viewBox="0 0 100 125"><g transform="translate(0,-952.36218)"><path style="text-indent:0;text-transform:none;direction:ltr;block-progression:tb;baseline-shift:baseline;color:#000000;enable-background:accumulate;" d="m 24,972.36218 c -7.7213,0 -14,6.2787 -14,14 l 0,32.00002 c 0,7.7213 6.2787,14 14,14 l 52,0 c 7.7213,0 14,-6.2787 14,-14 l 0,-32.00002 c 0,-7.7213 -6.2787,-14 -14,-14 l -52,0 z m 0,4 52,0 c 5.5745,0 10,4.4255 10,10 l 0,32.00002 c 0,5.5745 -4.4255,10 -10,10 l -52,0 c -5.5745,0 -10,-4.4255 -10,-10 l 0,-32.00002 c 0,-5.5745 4.4255,-10 10,-10 z m 17,13 0,26.00002 24,-13 -24,-13.00002 z" fill="#000000" fill-opacity="1" stroke="none" marker="none" visibility="visible" display="inline" overflow="visible"/></g><text x="0" y="115" fill="#000000" font-size="5px" font-weight="bold" font-family="'Helvetica Neue', Helvetica, Arial-Unicode, Arial, Sans-serif">Created by Aybige</text><text x="0" y="120" fill="#000000" font-size="5px" font-weight="bold" font-family="'Helvetica Neue', Helvetica, Arial-Unicode, Arial, Sans-serif">from the Noun Project</text></svg>