<svg xmlns="http://www.w3.org/2000/svg" xmlns:xlink="http://www.w3.org/1999/xlink" version="1.1" x="0px" y="0px" viewBox="0 0 1024 1280" style="enable-background:new 0 0 1024 1024;" xml:space="preserve"><g><path d="M962.4,501.4c-18.1-18.1-36.3-36.3-54.5-54.4c-28.9-28.9-57.8-57.8-86.7-86.7c-6.6-6.6-13.2-13.2-19.8-19.8   c-9.2-9.2-25.6-2.4-25.6,10.6v121H369.4c-23.2,0-46.4-0.3-69.5,0h-1c-20.9,0-41,18.4-40,40c1,21.7,17.6,40,40,40h477v121   c0,1.5,0.2,2.9,0.7,4.3c0,0.1,0,0.2,0.1,0.3c1.1,3.2,3.2,6,5.9,7.9c0,0,0,0,0.1,0c3,1.9,6.7,2.7,10.2,2.3c3.2-0.4,6.3-1.8,8.7-4.2   c18.1-18.2,36.3-36.3,54.4-54.4c28.9-28.9,57.8-57.8,86.7-86.7c6.6-6.6,13.2-13.2,19.8-19.8C968.2,516.9,968.2,507.1,962.4,501.4z"/><path d="M703.8,781.8v-40.3c0-20.9-18.4-41-40-40c-21.7,1-40,17.6-40,40v142.6c0,2.6,0.1,5.2,0.1,7.9c-0.8,0-1.5,0-2.3,0H186.9   c-17.1,0-34.2,0.1-51.3,0.1c0.1-3.2,0.2-6.4,0.2-9.5V152.2c0-6.7,0-13.5,0-20.2c0.7,0,1.4,0,2.2,0h434.8c17,0,34.1-0.1,51.1-0.1   c0,1.4,0,2.8,0,4.1v146.4c0,20.9,18.4,41,40,40c21.7-1,40-17.6,40-40V160.8c0-16.2,1.2-32.8-1-48.8c-4.6-34.4-34-59.3-68.4-60   c-1.6,0-3.2,0-4.8,0H136c-16.9,0-33.7,1-48.3,11.1c-19.8,13.8-31.5,34.3-31.9,58.7c0,1.6,0,3.2,0,4.8v771.3c0,1.5,0,2.9,0,4.4   c0.4,25,13.5,48.8,35.7,60.9c14.6,8,29.6,8.8,45.4,8.8h493.2c1.4,0,2.8,0,4.2,0c38.3-0.8,68.6-31.2,69.4-69.4   C704.6,862.3,703.8,822,703.8,781.8z"/></g><text x="0" y="1039" fill="#000000" font-size="5px" font-weight="bold" font-family="'Helvetica Neue', Helvetica, Arial-Unicode, Arial, Sans-serif">Created by shashank singh</text><text x="0" y="1044" fill="#000000" font-size="5px" font-weight="bold" font-family="'Helvetica Neue', Helvetica, Arial-Unicode, Arial, Sans-serif">from the Noun Project</text></svg>