<?xml version="1.0" encoding="UTF-8" standalone="no"?>
<svg
   xmlns:dc="http://purl.org/dc/elements/1.1/"
   xmlns:cc="http://creativecommons.org/ns#"
   xmlns:rdf="http://www.w3.org/1999/02/22-rdf-syntax-ns#"
   xmlns:svg="http://www.w3.org/2000/svg"
   xmlns="http://www.w3.org/2000/svg"
   xmlns:sodipodi="http://sodipodi.sourceforge.net/DTD/sodipodi-0.dtd"
   xmlns:inkscape="http://www.inkscape.org/namespaces/inkscape"
   version="1.1"
   x="0px"
   y="0px"
   viewBox="0 0 24 24"
   id="svg1691"
   sodipodi:docname="video.svg"
   width="24"
   height="24"
   inkscape:version="1.0.1 (0767f8302a, 2020-10-17)">
  <metadata
     id="metadata1697">
    <rdf:RDF>
      <cc:Work
         rdf:about="">
        <dc:format>image/svg+xml</dc:format>
        <dc:type
           rdf:resource="http://purl.org/dc/dcmitype/StillImage" />
        <dc:title></dc:title>
      </cc:Work>
    </rdf:RDF>
  </metadata>
  <defs
     id="defs1695" />
  <sodipodi:namedview
     pagecolor="#ffffff"
     bordercolor="#666666"
     borderopacity="1"
     objecttolerance="10"
     gridtolerance="10"
     guidetolerance="10"
     inkscape:pageopacity="0"
     inkscape:pageshadow="2"
     inkscape:window-width="1920"
     inkscape:window-height="1016"
     id="namedview1693"
     showgrid="false"
     inkscape:zoom="6.936"
     inkscape:cx="50"
     inkscape:cy="56.732987"
     inkscape:window-x="0"
     inkscape:window-y="27"
     inkscape:window-maximized="1"
     inkscape:current-layer="g1685" />
  <g
     transform="matrix(0.24928072,0,0,0.24928072,-0.464036,-237.86957)"
     id="g1685">
    <path
       style="color:#000000;text-indent:0;text-transform:none;direction:ltr;baseline-shift:baseline;stroke-width:1.18624;enable-background:accumulate"
       d="m 19.627645,966.22409 c -9.019772,0 -16.3543452,7.56333 -16.3543452,16.86443 v 38.54728 c 0,9.3011 7.3345732,16.8645 16.3543452,16.8645 h 60.74471 c 9.019771,0 16.354345,-7.5634 16.354345,-16.8645 v -38.54728 c 0,-9.3011 -7.334574,-16.86443 -16.354345,-16.86443 z m 0,4.81841 h 60.74471 c 6.51195,0 11.681674,5.33096 11.681674,12.04602 v 38.54728 c 0,6.7151 -5.169724,12.046 -11.681674,12.046 h -60.74471 c -6.51195,0 -11.6816752,-5.3309 -11.6816752,-12.046 v -38.54728 c 0,-6.71506 5.1697252,-12.04602 11.6816752,-12.04602 z m 19.858847,15.65982 v 31.31968 l 28.036021,-15.6598 z"
       fill="#000000"
       fill-opacity="1"
       stroke="none"
       marker="none"
       visibility="visible"
       display="inline"
       overflow="visible"
       id="path1683" />
  </g>
</svg>
