<svg id="Ebene_1" data-name="Ebene 1" xmlns="http://www.w3.org/2000/svg" viewBox="0 0 501.98 195.03"><defs><style>.cls-1,.cls-3{fill:#0096ff;}.cls-2,.cls-3{opacity:0.5;}.cls-4{fill:none;}</style></defs><title>201210_LE-Logo-mit-Schrift_</title><path class="cls-1" d="M147.55,20.74h7.61V59h20.22v6.5H147.52Z"/><path class="cls-1" d="M186.8,51.23a11.89,11.89,0,0,0,.87,4.83,7.3,7.3,0,0,0,2.66,3.29,7.59,7.59,0,0,0,4.37,1.2,8.69,8.69,0,0,0,4.62-1.2,5.77,5.77,0,0,0,2.62-3.63h6.9a10.9,10.9,0,0,1-2.66,5.66,13.61,13.61,0,0,1-5.09,3.53,16.32,16.32,0,0,1-6.21,1.21,16.48,16.48,0,0,1-8.16-2,13.74,13.74,0,0,1-5.48-5.62,18.07,18.07,0,0,1-2-8.69,20.45,20.45,0,0,1,1.79-8.75,14.19,14.19,0,0,1,5.19-6,14.64,14.64,0,0,1,8.16-2.2,14.85,14.85,0,0,1,8,2,12.71,12.71,0,0,1,4.89,5.62,20.14,20.14,0,0,1,1.66,8.44v2.29Zm0-4.68h15a10.47,10.47,0,0,0-.81-4.19,6.64,6.64,0,0,0-2.46-3,7.38,7.38,0,0,0-4.16-1.1,7,7,0,0,0-4.18,1.21,7.48,7.48,0,0,0-2.57,3.11A9,9,0,0,0,186.8,46.55Z"/><path class="cls-1" d="M222.56,20.77v7.12H215.1V20.77Zm-.1,12.72v32h-7.24v-32Z"/><path class="cls-1" d="M230.23,75.47v-42h7.53l.06,5a11,11,0,0,1,1.59-2.08,11.87,11.87,0,0,1,5.13-3.11,11.81,11.81,0,0,1,3.46-.48,12.21,12.21,0,0,1,6.54,1.75A11.67,11.67,0,0,1,259,40a22.53,22.53,0,0,1,1.62,9.16A23.31,23.31,0,0,1,259,58.6a12.29,12.29,0,0,1-4.67,5.65,13,13,0,0,1-7,1.87,10.56,10.56,0,0,1-3.32-.5,9.26,9.26,0,0,1-2.68-1.36,12.5,12.5,0,0,1-2.06-1.89,11.27,11.27,0,0,1-1.47-2.13V75.47Zm15.42-15a7,7,0,0,0,5.64-2.71q2.22-2.72,2.22-8.5c0-3.35-.69-6-2.08-7.91a6.75,6.75,0,0,0-5.78-2.9,6.62,6.62,0,0,0-5.94,3.05,14,14,0,0,0-2,7.76,17,17,0,0,0,.88,5.59A9.32,9.32,0,0,0,241.24,59,6.48,6.48,0,0,0,245.65,60.49Z"/><path class="cls-1" d="M263.57,65.5V61.13l16.85-22.28H264.35V33.49h25.1v4.36l-16.8,22.29h17V65.5Z"/><path class="cls-1" d="M302.15,20.77v7.12h-7.46V20.77Zm-.1,12.72v32h-7.24v-32Z"/><path class="cls-1" d="M323.66,76.09q-8.07,0-12.41-2.17c-2.89-1.44-4.34-3.43-4.34-5.94a4.67,4.67,0,0,1,.84-2.85,7.72,7.72,0,0,1,2-1.89,13.73,13.73,0,0,1,2.11-1.15,9.16,9.16,0,0,0,1.24-.58l-1.4-.81a5.39,5.39,0,0,1-1.56-1.36,3.47,3.47,0,0,1-.7-2.26,4,4,0,0,1,1.53-3,9.59,9.59,0,0,1,4.6-2,11.11,11.11,0,0,1-4.61-3.93,9.34,9.34,0,0,1-1.61-5.14,8.29,8.29,0,0,1,1.84-5.42,11.6,11.6,0,0,1,5.14-3.47A22.25,22.25,0,0,1,323.94,33a15.3,15.3,0,0,1,9.26,2.64l1.75-.7,2.46-1,2.55-1,2.09-.86L342,38.26l-5.54,1a9.68,9.68,0,0,1,.63,2,8.4,8.4,0,0,1,.23,1.86,9.19,9.19,0,0,1-1.56,5.15A10.78,10.78,0,0,1,331.08,52a18.64,18.64,0,0,1-7.76,1.43l-1.27,0-1.3-.07a9,9,0,0,0-3.43.59c-.62.33-.93.69-.93,1.09,0,.55.46.92,1.39,1.11a39.73,39.73,0,0,0,4.46.5l2.85.15c1.17.06,2.48.14,3.93.25,3.65.22,6.42,1.14,8.29,2.74a7.77,7.77,0,0,1,2.82,6.2A8.56,8.56,0,0,1,336,73.24Q332,76.09,323.66,76.09Zm1.27-4.43a12.58,12.58,0,0,0,6-1.11,3.58,3.58,0,0,0,1.95-3.29,3.33,3.33,0,0,0-1.33-2.72,7.23,7.23,0,0,0-4-1.24l-8.08-.49a4.89,4.89,0,0,0-2.52.48,5.08,5.08,0,0,0-1.93,1.58,3.6,3.6,0,0,0-.75,2.21c0,1.5.87,2.65,2.6,3.42S321.32,71.66,324.93,71.66ZM323.57,49a7.28,7.28,0,0,0,4.77-1.5,5.22,5.22,0,0,0,1.82-4.26,5.59,5.59,0,0,0-1.82-4.44,7,7,0,0,0-4.77-1.6,7.13,7.13,0,0,0-4.85,1.61,5.61,5.61,0,0,0-1.84,4.43,5.3,5.3,0,0,0,1.77,4.21A7.2,7.2,0,0,0,323.57,49Z"/><path class="cls-1" d="M352.3,51.23a12.07,12.07,0,0,0,.86,4.83,7.32,7.32,0,0,0,2.67,3.29,7.56,7.56,0,0,0,4.36,1.2,8.7,8.7,0,0,0,4.63-1.2,5.8,5.8,0,0,0,2.62-3.63h6.9a10.9,10.9,0,0,1-2.66,5.66,13.64,13.64,0,0,1-5.1,3.53,17.26,17.26,0,0,1-14.36-.76,13.74,13.74,0,0,1-5.48-5.62,18.07,18.07,0,0,1-2-8.69,20.3,20.3,0,0,1,1.79-8.75,14.19,14.19,0,0,1,5.19-6,14.6,14.6,0,0,1,8.15-2.2,14.8,14.8,0,0,1,8,2,12.73,12.73,0,0,1,4.9,5.62,20.14,20.14,0,0,1,1.65,8.44v2.29Zm0-4.68h15a10.65,10.65,0,0,0-.8-4.19,6.64,6.64,0,0,0-2.46-3,7.44,7.44,0,0,0-4.17-1.1,7,7,0,0,0-4.18,1.21,7.64,7.64,0,0,0-2.57,3.11A9,9,0,0,0,352.3,46.55Z"/><path class="cls-1" d="M380.5,65.5v-32h7.21v6.93a11.91,11.91,0,0,1,2.22-4.07,9.88,9.88,0,0,1,3.39-2.58,10,10,0,0,1,4.24-.9,9.51,9.51,0,0,1,1.08.06,2,2,0,0,1,.78.22v7.21a3.15,3.15,0,0,0-.89-.21,6.83,6.83,0,0,0-.94-.07,14.53,14.53,0,0,0-4.1.19,8,8,0,0,0-3,1.25,5.6,5.6,0,0,0-1.84,2.23,7.52,7.52,0,0,0-.62,3.14V65.5Z"/><path class="cls-1" d="M417,46.71v5.63l-16.35,0V46.74Z"/><path class="cls-1" d="M147.52,122.5V77.74h29.59l0,6.46h-22V96.74h19.41v6.38H155v12.82l22.5,0v6.53Z"/><path class="cls-1" d="M197,89.87a14.08,14.08,0,0,1,6.6,1.49,12,12,0,0,1,4.57,4.11,13.21,13.21,0,0,1,2,6h-6.43a7.14,7.14,0,0,0-1.06-2.77,6.45,6.45,0,0,0-2.26-2.14,6.73,6.73,0,0,0-3.43-.82,7.29,7.29,0,0,0-5.84,2.66c-1.5,1.78-2.24,4.5-2.24,8.18a13.74,13.74,0,0,0,2.13,8.08,7,7,0,0,0,6.1,3,6.25,6.25,0,0,0,3.39-.88,6.9,6.9,0,0,0,2.23-2.2,7.7,7.7,0,0,0,1.07-2.65h6.25a11.68,11.68,0,0,1-2,5.79,12.11,12.11,0,0,1-4.58,4,14.19,14.19,0,0,1-6.52,1.44,15.6,15.6,0,0,1-7.81-1.94,13.53,13.53,0,0,1-5.37-5.63,18.94,18.94,0,0,1-2-8.93,19.94,19.94,0,0,1,1.82-8.75A14.09,14.09,0,0,1,188.87,92,15,15,0,0,1,197,89.87Z"/><path class="cls-1" d="M245.56,122.5h-7.65l-9.29-14.83-5.2,5.45v9.38h-7.49v-46h7.49V105L236.7,90.49H245L233.39,103Z"/><path class="cls-1" d="M254.38,108.23a11.89,11.89,0,0,0,.87,4.83,7.3,7.3,0,0,0,2.66,3.29,7.59,7.59,0,0,0,4.37,1.2,8.69,8.69,0,0,0,4.62-1.2,5.77,5.77,0,0,0,2.62-3.63h6.9a10.9,10.9,0,0,1-2.66,5.66,13.61,13.61,0,0,1-5.09,3.53,16.32,16.32,0,0,1-6.21,1.21,16.48,16.48,0,0,1-8.16-2,13.74,13.74,0,0,1-5.48-5.62,18.07,18.07,0,0,1-2-8.69,20.45,20.45,0,0,1,1.79-8.75,14.19,14.19,0,0,1,5.19-6,14.64,14.64,0,0,1,8.16-2.2,14.85,14.85,0,0,1,8,2,12.71,12.71,0,0,1,4.89,5.62,20.14,20.14,0,0,1,1.66,8.44v2.29Zm0-4.68h15a10.47,10.47,0,0,0-.8-4.19,6.64,6.64,0,0,0-2.46-3,7.39,7.39,0,0,0-4.17-1.1,7,7,0,0,0-4.17,1.21,7.48,7.48,0,0,0-2.57,3.11A9,9,0,0,0,254.38,103.55Z"/><path class="cls-1" d="M282.58,122.5v-32H290v4.58a10.46,10.46,0,0,1,2-2.38,9.91,9.91,0,0,1,3.17-1.86,12.63,12.63,0,0,1,4.43-.71,13.08,13.08,0,0,1,5.52,1.17A9.45,9.45,0,0,1,309.22,95a12.08,12.08,0,0,1,1.57,6.47v21h-7.56V102.35a6,6,0,0,0-1.73-4.69,6.32,6.32,0,0,0-4.37-1.54,9.66,9.66,0,0,0-3.4.61,6,6,0,0,0-2.62,1.82,4.67,4.67,0,0,0-1,3v20.9Z"/><path class="cls-1" d="M317.78,122.5v-8.67h8.51v8.67Z"/><path class="cls-1" d="M345.21,123.12a12.27,12.27,0,0,1-10-4.37q-3.62-4.36-3.62-12.41a23.5,23.5,0,0,1,1.47-8.71,12.38,12.38,0,0,1,4.33-5.73,12,12,0,0,1,7.11-2,12.65,12.65,0,0,1,3.6.48A12.37,12.37,0,0,1,351,91.6a10.79,10.79,0,0,1,2.15,1.71,8.54,8.54,0,0,1,1.38,1.85V76.5h7.55v46h-5.57l-.84-6.56a12.49,12.49,0,0,1-1.09,2.4,9.58,9.58,0,0,1-5,4.1A12.75,12.75,0,0,1,345.21,123.12Zm1.55-5.54q4,0,5.93-2.65c1.24-1.76,1.87-4.69,1.87-8.78a19,19,0,0,0-.85-5.88,7.15,7.15,0,0,0-2.51-3.59,7.36,7.36,0,0,0-4.35-1.21,7.11,7.11,0,0,0-5.6,2.51c-1.47,1.67-2.2,4.4-2.2,8.17s.67,6.6,2,8.53A6.54,6.54,0,0,0,346.76,117.58Z"/><path class="cls-1" d="M375.58,108.23a11.89,11.89,0,0,0,.87,4.83,7.24,7.24,0,0,0,2.66,3.29,7.56,7.56,0,0,0,4.36,1.2,8.7,8.7,0,0,0,4.63-1.2,5.8,5.8,0,0,0,2.62-3.63h6.9a10.9,10.9,0,0,1-2.66,5.66,13.68,13.68,0,0,1-5.09,3.53,17.29,17.29,0,0,1-14.37-.76,13.74,13.74,0,0,1-5.48-5.62,18.08,18.08,0,0,1-2-8.69,20.3,20.3,0,0,1,1.8-8.75,14.19,14.19,0,0,1,5.19-6,14.63,14.63,0,0,1,8.15-2.2,14.86,14.86,0,0,1,8,2,12.77,12.77,0,0,1,4.89,5.62,20.14,20.14,0,0,1,1.65,8.44v2.29Zm0-4.68h15a10.65,10.65,0,0,0-.8-4.19,6.64,6.64,0,0,0-2.46-3,7.44,7.44,0,0,0-4.17-1.1A7,7,0,0,0,379,96.5a7.64,7.64,0,0,0-2.57,3.11A9.18,9.18,0,0,0,375.58,103.55Z"/><g class="cls-2"><path class="cls-1" d="M156.14,176a8.79,8.79,0,0,1-4.52-1.12,7.53,7.53,0,0,1-3-3.2,10.9,10.9,0,0,1-1.06-5,11.41,11.41,0,0,1,1-5,7.74,7.74,0,0,1,3-3.33,8.53,8.53,0,0,1,4.61-1.2,8.66,8.66,0,0,1,4.51,1.14,7.6,7.6,0,0,1,3,3.26,11.44,11.44,0,0,1,1,5.11,11.26,11.26,0,0,1-1,4.85,7.7,7.7,0,0,1-2.9,3.28A8.52,8.52,0,0,1,156.14,176Zm0-3.25a3.69,3.69,0,0,0,2.43-.8,4.79,4.79,0,0,0,1.42-2.21,10.17,10.17,0,0,0,.46-3.2,10.58,10.58,0,0,0-.41-3.06,4.73,4.73,0,0,0-1.36-2.26,3.68,3.68,0,0,0-2.54-.85,3.81,3.81,0,0,0-2.46.78,4.65,4.65,0,0,0-1.46,2.18,9.85,9.85,0,0,0-.48,3.21,10.45,10.45,0,0,0,.43,3.07,4.81,4.81,0,0,0,1.39,2.27A3.7,3.7,0,0,0,156.16,172.72Z"/><path class="cls-1" d="M178.22,157.48v3h-4.09v15.12h-4.26V160.5H166.3v-3h3.57v-2.7a4.45,4.45,0,0,1,1.21-3.35,4.79,4.79,0,0,1,3.48-1.17h3.82l0,2.91h-2.53a1.66,1.66,0,0,0-1.42.53,2.89,2.89,0,0,0-.39,1.68v2.1Z"/><path class="cls-1" d="M192.3,157.48v3h-4.08v15.12H184V160.5h-3.58v-3H184v-2.7a4.49,4.49,0,0,1,1.2-3.35,4.79,4.79,0,0,1,3.48-1.17h3.82l0,2.91H190a1.66,1.66,0,0,0-1.42.53,3,3,0,0,0-.38,1.68v2.1Z"/><path class="cls-1" d="M198.14,167.53a6.77,6.77,0,0,0,.49,2.74,4.17,4.17,0,0,0,1.51,1.86,4.34,4.34,0,0,0,2.48.68,5,5,0,0,0,2.62-.68,3.26,3.26,0,0,0,1.48-2.06h3.91a6.09,6.09,0,0,1-1.51,3.21,7.59,7.59,0,0,1-2.88,2,9.75,9.75,0,0,1-8.14-.43,7.73,7.73,0,0,1-3.1-3.18,10.17,10.17,0,0,1-1.12-4.93,11.46,11.46,0,0,1,1-5,8,8,0,0,1,2.94-3.41,9.32,9.32,0,0,1,9.13-.11,7.1,7.1,0,0,1,2.77,3.18,11.33,11.33,0,0,1,.94,4.78v1.3Zm0-2.65h8.51a5.83,5.83,0,0,0-.46-2.37,3.78,3.78,0,0,0-1.39-1.69,4.23,4.23,0,0,0-2.36-.62,4,4,0,0,0-2.37.68,4.31,4.31,0,0,0-1.45,1.77A5.12,5.12,0,0,0,198.14,164.88Z"/><path class="cls-1" d="M214.12,175.62V157.48h4.17v2.6a5.67,5.67,0,0,1,1.15-1.35,5.85,5.85,0,0,1,1.8-1,7.06,7.06,0,0,1,2.51-.41,7.33,7.33,0,0,1,3.13.67,5.33,5.33,0,0,1,2.33,2.09,6.79,6.79,0,0,1,.89,3.66v11.93h-4.28V164.2a3.36,3.36,0,0,0-1-2.66,3.57,3.57,0,0,0-2.47-.87,5.41,5.41,0,0,0-1.93.35,3.36,3.36,0,0,0-1.48,1,2.63,2.63,0,0,0-.57,1.73v11.84Z"/><path class="cls-1" d="M234.06,175.62v-4.91h4.82v4.91Z"/><path class="cls-1" d="M255.66,175.88a7.43,7.43,0,0,1-2.8-.44,3.55,3.55,0,0,1-1.58-1.17,4,4,0,0,1-.68-1.66,10.71,10.71,0,0,1-.16-1.89V149.56h4.17v20.67a3,3,0,0,0,.48,1.83,2.11,2.11,0,0,0,1.57.75l.91,0v2.68q-.46.14-1,.24A4.54,4.54,0,0,1,255.66,175.88Z"/><path class="cls-1" d="M267.83,176a8.81,8.81,0,0,1-4.52-1.12,7.53,7.53,0,0,1-3-3.2,10.9,10.9,0,0,1-1.06-5,11.41,11.41,0,0,1,1-5,7.74,7.74,0,0,1,3-3.33,8.56,8.56,0,0,1,4.61-1.2,8.66,8.66,0,0,1,4.51,1.14,7.6,7.6,0,0,1,2.95,3.26,11.44,11.44,0,0,1,1.05,5.11,11.26,11.26,0,0,1-1,4.85,7.7,7.7,0,0,1-2.9,3.28A8.52,8.52,0,0,1,267.83,176Zm0-3.25a3.69,3.69,0,0,0,2.43-.8,4.79,4.79,0,0,0,1.42-2.21,10.16,10.16,0,0,0,.47-3.2,10.58,10.58,0,0,0-.42-3.06,4.67,4.67,0,0,0-1.37-2.26,3.64,3.64,0,0,0-2.53-.85,3.81,3.81,0,0,0-2.46.78,4.65,4.65,0,0,0-1.46,2.18,9.85,9.85,0,0,0-.48,3.21,10.45,10.45,0,0,0,.43,3.07,4.89,4.89,0,0,0,1.39,2.27A3.73,3.73,0,0,0,267.85,172.72Z"/><path class="cls-1" d="M296.44,175.62H292.1l-5.26-8.4-2.94,3.08v5.32h-4.25V149.56h4.25v16.15l7.52-8.23h4.68l-6.56,7.09Z"/><path class="cls-1" d="M303.92,176a7.42,7.42,0,0,1-3.11-.64,5.06,5.06,0,0,1-2.16-1.84,5.28,5.28,0,0,1-.78-2.92A5.18,5.18,0,0,1,300,166q2.16-1.53,6.92-1.59l2.7-.08v-1.22a3,3,0,0,0-.85-2.26,3.63,3.63,0,0,0-2.64-.79,5,5,0,0,0-2.41.62,3,3,0,0,0-1.45,2h-3.63a5.44,5.44,0,0,1,1.08-3.11,5.92,5.92,0,0,1,2.67-1.88,11.54,11.54,0,0,1,3.93-.62,11,11,0,0,1,4.23.69,4.9,4.9,0,0,1,2.4,2,6,6,0,0,1,.77,3.11v12.72h-3.59l-.34-3.27a5.88,5.88,0,0,1-2.48,2.84A7.32,7.32,0,0,1,303.92,176Zm1.39-2.9a4.27,4.27,0,0,0,1.56-.29,5,5,0,0,0,1.4-.79,4.21,4.21,0,0,0,1-1.11,2.41,2.41,0,0,0,.38-1.28v-2.86l-2.23,0a11.58,11.58,0,0,0-2.88.35,4.06,4.06,0,0,0-1.92,1.06,2.69,2.69,0,0,0-.69,1.94,2.61,2.61,0,0,0,1,2.16A3.68,3.68,0,0,0,305.31,173.07Z"/><path class="cls-1" d="M323.25,175.88a7.48,7.48,0,0,1-2.81-.44,3.46,3.46,0,0,1-1.57-1.17,4,4,0,0,1-.69-1.66,11.76,11.76,0,0,1-.16-1.89V149.56h4.18v20.67a3,3,0,0,0,.48,1.83,2.09,2.09,0,0,0,1.57.75l.91,0v2.68c-.31.09-.64.17-1,.24A4.62,4.62,0,0,1,323.25,175.88Z"/><path class="cls-1" d="M328.42,175.62v-4.91h4.82v4.91Z"/><path class="cls-1" d="M359.74,157.48l-6.68,18.14h-3.37L343,157.48h3.91l4.35,12.7h.22l4.33-12.7Z"/><path class="cls-1" d="M365,167.53a6.77,6.77,0,0,0,.49,2.74,4.1,4.1,0,0,0,1.51,1.86,4.3,4.3,0,0,0,2.47.68,4.94,4.94,0,0,0,2.62-.68,3.23,3.23,0,0,0,1.48-2.06h3.91a6.15,6.15,0,0,1-1.5,3.21,7.71,7.71,0,0,1-2.89,2,9.75,9.75,0,0,1-8.14-.43,7.79,7.79,0,0,1-3.1-3.18,10.28,10.28,0,0,1-1.11-4.93,11.46,11.46,0,0,1,1-5,8,8,0,0,1,2.94-3.41,8.31,8.31,0,0,1,4.62-1.25,8.4,8.4,0,0,1,4.52,1.14,7.22,7.22,0,0,1,2.77,3.18,11.48,11.48,0,0,1,.94,4.78v1.3Zm0-2.65h8.5a6,6,0,0,0-.45-2.37,3.8,3.8,0,0,0-1.4-1.69,4.19,4.19,0,0,0-2.35-.62,4,4,0,0,0-2.37.68,4.33,4.33,0,0,0-1.46,1.77A5.26,5.26,0,0,0,365,164.88Z"/><path class="cls-1" d="M380.94,175.62V157.48H385v3.93a6.61,6.61,0,0,1,1.25-2.3,5.53,5.53,0,0,1,4.33-2,4.08,4.08,0,0,1,.61,0,1.06,1.06,0,0,1,.44.12v4.09a1.9,1.9,0,0,0-.5-.13l-.54,0a8.24,8.24,0,0,0-2.32.1,4.45,4.45,0,0,0-1.7.71,3.2,3.2,0,0,0-1,1.27,4.1,4.1,0,0,0-.36,1.78v10.54Z"/><path class="cls-1" d="M394.31,175.62V157.48h4.17v2.6a5.67,5.67,0,0,1,1.15-1.35,5.73,5.73,0,0,1,1.8-1,7.06,7.06,0,0,1,2.51-.41,7.26,7.26,0,0,1,3.12.67A5.3,5.3,0,0,1,409.4,160a6.79,6.79,0,0,1,.88,3.66v11.93H406V164.2a3.36,3.36,0,0,0-1-2.66,3.58,3.58,0,0,0-2.47-.87,5.41,5.41,0,0,0-1.93.35,3.36,3.36,0,0,0-1.48,1,2.63,2.63,0,0,0-.57,1.73v11.84Z"/><path class="cls-1" d="M417.74,167.53a6.6,6.6,0,0,0,.49,2.74,4.15,4.15,0,0,0,1.5,1.86,4.36,4.36,0,0,0,2.48.68,5,5,0,0,0,2.62-.68,3.23,3.23,0,0,0,1.48-2.06h3.91a6.09,6.09,0,0,1-1.51,3.21,7.59,7.59,0,0,1-2.88,2,9.75,9.75,0,0,1-8.14-.43,7.79,7.79,0,0,1-3.1-3.18,10.28,10.28,0,0,1-1.12-4.93,11.46,11.46,0,0,1,1-5,8,8,0,0,1,2.94-3.41,8.31,8.31,0,0,1,4.62-1.25,8.43,8.43,0,0,1,4.52,1.14,7.22,7.22,0,0,1,2.77,3.18,11.48,11.48,0,0,1,.94,4.78v1.3Zm0-2.65h8.5a6,6,0,0,0-.45-2.37,3.8,3.8,0,0,0-1.4-1.69,4.2,4.2,0,0,0-2.36-.62,4.06,4.06,0,0,0-2.37.68,4.39,4.39,0,0,0-1.45,1.77A5,5,0,0,0,417.74,164.88Z"/><path class="cls-1" d="M443.46,160.5h-4l0,10.4a2.87,2.87,0,0,0,.18,1.18.92.92,0,0,0,.6.49,4.12,4.12,0,0,0,1.11.12h2.23v2.7a5.19,5.19,0,0,1-1.06.25,11.91,11.91,0,0,1-1.9.12,7.87,7.87,0,0,1-3.34-.57,3.18,3.18,0,0,1-1.64-1.63,6.13,6.13,0,0,1-.46-2.5V160.5H432.2v-3h3.07l1.07-5.38h3.07v5.37h4Z"/><path class="cls-1" d="M446,175.62v-2.48l9.54-12.62h-9.1v-3h14.22V160l-9.52,12.62h9.61v3Z"/><path class="cls-1" d="M474.29,160.5h-4.05l0,10.4a2.87,2.87,0,0,0,.18,1.18.88.88,0,0,0,.6.49,4.12,4.12,0,0,0,1.11.12h2.23v2.7a5.19,5.19,0,0,1-1.06.25,11.91,11.91,0,0,1-1.9.12,7.92,7.92,0,0,1-3.35-.57,3.2,3.2,0,0,1-1.63-1.63,6.13,6.13,0,0,1-.46-2.5V160.5h-3v-3h3.07l1.07-5.38h3.07v5.37h4.05Z"/><path class="cls-1" d="M477.78,175.62v-4.91h4.83v4.91Z"/></g><polygon class="cls-1" points="18.76 33.03 44.67 47.99 44.67 137.52 70.67 152.86 70.67 182.79 18.76 152.48 18.76 33.03"/><polygon class="cls-3" points="44.71 107.74 96.45 77.81 96.45 107.74 44.71 137.67 44.71 107.74"/><polygon class="cls-3" points="44.71 48.8 96.45 18.86 96.45 48.8 44.71 78.73 44.71 48.8"/><polygon class="cls-3" points="70.52 153.15 122.19 122.79 122.19 152.72 70.52 183.08 70.52 153.15"/><polygon class="cls-4" points="96.45 77.81 70.82 62.5 44.71 78.73 44.71 107.74 96.45 77.81"/><polygon class="cls-4" points="122.32 123.22 96.69 107.91 44.65 137.67 70.52 153.15 122.32 123.22"/><polygon class="cls-4" points="96.44 18.25 70.8 2.94 18.84 33.32 44.71 48.8 96.44 18.25"/></svg>